<svg enable-background="new 0 0 322.3 250.9" viewBox="0 0 322.3 250.9" xmlns="http://www.w3.org/2000/svg"><g fill="#267d54"><path d="m129.5 4c0 5.3.4 9.5-.2 13.5-.2 1.7-2.1 3.8-3.7 4.5-21.1 9.1-39.3 22.1-53.4 40.4-15.1 19.6-23.8 41.6-22.6 66.7.1 1.8.3 3.6.9 5.3 2 5.1 4.2 5.7 9.3 3.5 6.7-2.9 13.4-6.2 20.4-8.1 15.9-4.3 37.8 4.3 48.1 17.3 9 11.5 14.4 24.1 14.3 38.7-.1 28.7-23 55.4-51.2 59.7-28.9 4.5-51-6.4-68.1-29-10.7-14-15.5-30.1-17.2-47.6-2.7-28.2 1.5-55.2 15-80.2 5.8-10.6 13-20.7 20.9-29.9 19.8-23 45.5-37.6 73.2-49 4.5-1.6 8.8-3.5 14.3-5.8z"/><path d="m305.6 4.2c0 4.4.6 8.7-.2 12.6-.5 2.2-3 4.4-5.1 5.6-9.6 5.8-19.7 10.8-29 16.9-13.7 9-23.4 21.9-31.8 35.7-10.1 16.9-15 35.2-13.9 55 .1 1.9.3 4 1.2 5.7 2.5 4.8 4.5 5.2 9 2.1 30.3-20.3 67.9-5.3 79.8 29.2 12.5 36.2-14.9 73.4-48.2 78.4-20.5 3.1-38.5-1.7-54.5-14.8-17.4-14.2-26.2-32.8-29.7-54.5-4.6-28.5-.6-55.7 11.3-81.9 10.7-23.4 27.1-42 47.6-57.3 19.1-14.1 40.5-24.1 63.5-32.7z"/></g></svg>