<svg enable-background="new 0 0 299.1 256.62" viewBox="0 0 299.1 256.62" xmlns="http://www.w3.org/2000/svg"><circle cx="148.58" cy="100.62" fill="#fec730" r="96.6"/><path d="m225.85 116.76c.03-6.59-1.19-13.13-3.83-19.56-5.09-12.39-16.42-19.61-29.28-22.61-6.34-1.48-12.76-1.29-19.27-1.16.44.06.87.13 1.31.19.45.06.9.13 1.34.19 8.97 1.29 16.97 4.59 23.39 11.18 4.6 4.72 7.54 10.39 9.25 16.69 1.34 4.95 1.95 9.96 1.93 15v.08c.02 5.04-.59 10.04-1.93 15-1.71 6.3-4.65 11.97-9.25 16.69-6.41 6.59-14.42 9.89-23.39 11.18-.45.06-2.32.43-2.76.49 6.54.1 13.04.21 19.38-1.27 12.85-3.01 24.19-10.22 29.28-22.61 2.64-6.43 3.86-12.97 3.83-19.56z"/><path d="m206.43 95.2-13.81-12.54-13.39-5.97-19.76-.56c-.62-2.74-1.42-5.47-2.53-8.17-5.09-12.39-16.42-19.61-29.28-22.61-6.34-1.48-12.76-1.29-19.27-1.16.44.06.87.13 1.31.19.45.06.9.13 1.34.19 8.97 1.29 16.97 4.59 23.39 11.18 4.6 4.72 7.54 10.39 9.25 16.69.28 1.05.41 2.11.63 3.17l-1.27-.05-6.91-15.69-14.07-10.41-17.25-3.4-26.63 1.36v80.11h34.8l16.57-6.13 14.14-18.88c-1.71 6.3-4.65 11.97-9.25 16.69-6.41 6.59-14.42 9.89-23.39 11.18-.45.06-2.32.43-2.76.49 6.54.1 13.04.21 19.38-1.27 5.95-1.39 11.55-3.73 16.38-7.03l.63 34.45h35.92l17.93-7.94 8.62-12.48 3.18-25.87z"/><g enable-background="new" fill="#fec730"><path d="m105.46 53.43c21.4 0 32.26 13.93 32.26 34.77s-10.85 34.77-32.26 34.77h-21.01v-69.54zm-.93 61.89c18.61 0 26.99-10.9 26.99-27.79s-8.38-27.67-26.99-27.67h-12.82v55.46z"/><path d="m171.33 82.66c21.4 0 32.26 13.93 32.26 34.77s-10.85 34.77-32.26 34.77h-21.01v-69.54zm-.93 61.88c18.61 0 26.99-10.9 26.99-27.79s-8.38-27.67-26.99-27.67h-12.83v55.46z"/><path d="m170.4 73.27h-24.73c-4.65-17.9-18.48-29.22-41.13-29.22h-28.62v86.95h28.61c18.06 0 30.55-7.18 37.26-19.13v48.36h28.61c28.24 0 43.02-17.41 43.02-43.47 0-26.08-14.78-43.49-43.02-43.49zm-64.94 52.59h-23.84v-75.3h23.84c22.83 0 35.1 15.08 35.1 37.65s-12.27 37.65-35.1 37.65zm65.87 29.22h-23.84v-75.3h23.84c22.83 0 35.1 15.08 35.1 37.65s-12.28 37.65-35.1 37.65z"/></g><path d="m25.71 253.42c0 .82-.51 1.23-1.53 1.23s-1.53-.41-1.53-1.23v-3.22l-3.17 2.97c-.97.87-2.76 1.43-4.65 1.43h-4.4c-4.65 0-7.77-3.43-7.77-8.08v-10.23c0-4.45 3.27-8.08 7.77-8.08h3.94c1.38 0 3.02.56 3.99 1.53l4.3 4.09v-14.32c0-.82.51-1.23 1.53-1.23s1.53.41 1.53 1.23v33.91zm-3.07-6.75v-9.26l-4.76-4.7c-1.23-1.18-2.45-1.64-4.09-1.64h-3.78c-2.2 0-4.3 2.25-4.3 4.5v11.76c0 2.25 2.05 4.45 4.3 4.45h5.27c1.59 0 2.81-.62 3.84-1.59z"/><path d="m52.92 251.63c.77 0 1.23.51 1.23 1.49 0 .97-.41 1.48-1.23 1.48h-11.15c-4.76 0-8.08-3.33-8.08-8.03v-10.48c0-4.55 3.38-8.18 7.77-8.18h7.06c4.3 0 7.82 3.63 7.82 8.18v3.07c0 1.59-1.79 3.43-3.43 3.43h-16.15v4.71c0 2.66 2.4 4.35 4.6 4.35h11.56zm-1.13-11.81c.97 0 1.48-.92 1.48-1.59v-2.66c0-2.25-2.1-4.6-4.3-4.6h-7.72c-2.3 0-4.5 2.2-4.5 4.6v4.25z"/><path d="m77.62 253.72c-.41.56-1.02 1.13-2.61 1.13-1.07 0-2.2-.56-2.66-1.13l-6.75-8.23c-1.38-1.69-1.89-2.92-1.89-5.32v-11.25c0-.77.56-1.23 1.59-1.23 1.07 0 1.59.46 1.59 1.23v11c0 1.69.15 2.35 1.18 3.63l6.19 8.08h1.38l6.29-8.08c1.07-1.28 1.18-1.94 1.18-3.63v-11c0-.77.56-1.23 1.59-1.23 1.07 0 1.64.46 1.64 1.23v11.25c0 2.4-.51 3.63-1.94 5.32z"/><path d="m106.16 251.63c.77 0 1.13.46 1.13 1.33s-.36 1.33-1.13 1.33h-12.53c-.77 0-1.18-.46-1.18-1.33s.41-1.33 1.18-1.33h4.6v-20.3h-4.6c-.77 0-1.18-.46-1.18-1.33 0-.97.41-1.43 1.18-1.43h7.67v23.06zm-4.3-30.12c0 .66-.51 1.22-1.13 1.22h-2.25c-.61 0-1.13-.56-1.13-1.22v-2.1c0-.61.51-1.13 1.13-1.13h2.25c.61 0 1.13.51 1.13 1.13z"/><path d="m131.73 251.63c.77 0 1.23.51 1.23 1.49 0 .97-.41 1.48-1.23 1.48h-11.15c-4.76 0-8.08-3.33-8.08-8.03v-10.48c0-4.55 3.38-8.18 7.77-8.18h7.06c4.3 0 7.82 3.63 7.82 8.18v3.07c0 1.59-1.79 3.43-3.43 3.43h-16.16v4.71c0 2.66 2.4 4.35 4.6 4.35h11.57zm-1.12-11.81c.97 0 1.48-.92 1.48-1.59v-2.66c0-2.25-2.1-4.6-4.3-4.6h-7.72c-2.3 0-4.5 2.2-4.5 4.6v4.25z"/><path d="m165.53 253.42c0 .82-.51 1.23-1.53 1.23s-1.54-.41-1.54-1.23v-18.1c0-2.2-2.1-4.55-4.3-4.55h-3.43c-1.59 0-2.81.46-4.04 1.64l-4.81 4.76v16.26c0 .82-.51 1.23-1.48 1.23-1.07 0-1.59-.41-1.59-1.23v-24.34c0-.82.51-1.23 1.54-1.23 1.02 0 1.53.41 1.53 1.23v4.55l4.3-4.19c.97-.97 2.61-1.54 3.99-1.54h3.58c4.5 0 7.77 3.63 7.77 8.18v17.33z"/><path d="m188.19 251.63c2.46 0 4.14-1.89 4.14-4.35 0-2.61-1.69-4.14-4.19-4.3l-7.67-.31c-4.45-.15-7.57-3.17-7.57-7.31 0-3.73 2.86-7.36 7.16-7.36h12.53c.77 0 1.18.51 1.18 1.54 0 1.18-.51 1.64-1.18 1.64l-12.63-.1c-2.25 0-3.99 2.1-3.99 4.4 0 2.61 2.35 4.14 4.5 4.14l7.77.25c4.3.16 7.16 3.68 7.16 7.26 0 3.84-2.92 7.52-7.26 7.52h-13.14c-.76 0-1.18-.51-1.18-1.53 0-.97.41-1.49 1.18-1.49z"/><path d="m204.05 254.59c-1.79 0-3.22-1.43-3.22-3.22s1.43-3.27 3.22-3.27 3.27 1.48 3.27 3.27-1.48 3.22-3.27 3.22z"/><path d="m236.01 253.42c0 .82-.51 1.23-1.54 1.23-1.02 0-1.53-.41-1.53-1.23v-3.22l-3.17 2.97c-.97.87-2.76 1.43-4.66 1.43h-4.4c-4.66 0-7.77-3.43-7.77-8.08v-10.23c0-4.45 3.27-8.08 7.77-8.08h3.94c1.38 0 3.02.56 3.99 1.53l4.3 4.09v-14.32c0-.82.51-1.23 1.53-1.23s1.54.41 1.54 1.23zm-3.07-6.75v-9.26l-4.76-4.7c-1.23-1.18-2.46-1.64-4.09-1.64h-3.78c-2.2 0-4.3 2.25-4.3 4.5v11.76c0 2.25 2.05 4.45 4.3 4.45h5.27c1.59 0 2.81-.62 3.84-1.59z"/><path d="m263.22 251.63c.77 0 1.23.51 1.23 1.49 0 .97-.41 1.48-1.23 1.48h-11.15c-4.76 0-8.08-3.33-8.08-8.03v-10.48c0-4.55 3.38-8.18 7.77-8.18h7.06c4.3 0 7.82 3.63 7.82 8.18v3.07c0 1.59-1.79 3.43-3.43 3.43h-16.16v4.71c0 2.66 2.4 4.35 4.6 4.35h11.57zm-1.13-11.81c.97 0 1.48-.92 1.48-1.59v-2.66c0-2.25-2.1-4.6-4.3-4.6h-7.72c-2.3 0-4.5 2.2-4.5 4.6v4.25z"/><path d="m287.92 253.72c-.41.56-1.02 1.13-2.61 1.13-1.07 0-2.2-.56-2.66-1.13l-6.75-8.23c-1.38-1.69-1.89-2.92-1.89-5.32v-11.25c0-.77.56-1.23 1.59-1.23 1.08 0 1.59.46 1.59 1.23v11c0 1.69.16 2.35 1.18 3.63l6.19 8.08h1.38l6.29-8.08c1.07-1.28 1.17-1.94 1.17-3.63v-11c0-.77.56-1.23 1.59-1.23 1.08 0 1.64.46 1.64 1.23v11.25c0 2.4-.51 3.63-1.95 5.32z"/></svg>