<svg enable-background="new 0 0 200 200" viewBox="0 0 200 200" xmlns="http://www.w3.org/2000/svg"><circle cx="100.07" cy="100.62" fill="#fec730" r="96.6"/><path d="m177.34 116.76c.03-6.59-1.19-13.13-3.83-19.56-5.09-12.39-16.42-19.61-29.28-22.61-6.34-1.48-12.76-1.29-19.27-1.16.44.06.87.13 1.31.19.45.06.9.13 1.34.19 8.97 1.29 16.97 4.59 23.39 11.18 4.6 4.72 7.54 10.39 9.25 16.69 1.34 4.95 1.95 9.96 1.93 15v.08c.02 5.04-.59 10.04-1.93 15-1.71 6.3-4.65 11.97-9.25 16.69-6.41 6.59-14.42 9.89-23.39 11.18-.45.06-2.32.43-2.76.49 6.54.1 13.04.21 19.38-1.27 12.85-3.01 24.19-10.22 29.28-22.61 2.64-6.43 3.86-12.97 3.83-19.56z"/><path d="m157.92 95.2-13.81-12.54-13.39-5.97-19.76-.56c-.62-2.74-1.42-5.47-2.53-8.17-5.09-12.4-16.43-19.61-29.28-22.62-6.34-1.48-12.76-1.29-19.27-1.16.44.06.87.13 1.31.19.45.06.9.13 1.34.19 8.97 1.29 16.97 4.59 23.39 11.18 4.6 4.72 7.54 10.39 9.25 16.69.28 1.05.41 2.11.63 3.17l-1.27-.05-6.93-15.69-14.07-10.41-17.25-3.4-26.63 1.36v80.11h34.8l16.57-6.13 14.14-18.88c-1.71 6.3-4.65 11.97-9.25 16.69-6.41 6.59-14.42 9.89-23.39 11.18-.45.06-2.32.43-2.76.49 6.54.1 13.04.21 19.38-1.27 5.95-1.39 11.55-3.73 16.38-7.03l.63 34.45h35.92l17.93-7.94 8.62-12.48 3.18-25.87z"/><g enable-background="new" fill="#fec730"><path d="m56.95 53.43c21.4 0 32.26 13.93 32.26 34.77s-10.85 34.77-32.26 34.77h-21.01v-69.54zm-.93 61.89c18.61 0 26.99-10.9 26.99-27.79s-8.38-27.67-26.99-27.67h-12.83v55.46z"/><path d="m122.82 82.66c21.4 0 32.26 13.93 32.26 34.77s-10.85 34.77-32.26 34.77h-21.02v-69.54zm-.93 61.88c18.61 0 26.99-10.9 26.99-27.79s-8.38-27.67-26.99-27.67h-12.83v55.46z"/><path d="m121.89 73.27h-24.73c-4.65-17.9-18.48-29.22-41.13-29.22h-28.62v86.95h28.61c18.06 0 30.55-7.18 37.26-19.13v48.36h28.61c28.24 0 43.02-17.41 43.02-43.47 0-26.08-14.78-43.49-43.02-43.49zm-64.94 52.59h-23.84v-75.3h23.84c22.83 0 35.1 15.08 35.1 37.65s-12.27 37.65-35.1 37.65zm65.87 29.22h-23.85v-75.3h23.84c22.83 0 35.1 15.08 35.1 37.65s-12.27 37.65-35.09 37.65z"/></g></svg>
