<?xml version="1.0" encoding="utf-8"?>
<!-- Generator: Adobe Illustrator 23.1.0, SVG Export Plug-In . SVG Version: 6.00 Build 0)  -->
<svg version="1.1" id="Calque_1" xmlns="http://www.w3.org/2000/svg" xmlns:xlink="http://www.w3.org/1999/xlink" x="0px" y="0px"
	 viewBox="0 0 1139.06 198.2" style="enable-background:new 0 0 1139.06 198.2;" xml:space="preserve">
	 <style type="text/css">
	 	.st0{fill:#FFFFFF;}
	 </style>
<g>
	<polygon class="st0" points="147.72,11.25 113.73,11.25 92.9,63.07 73.23,11.25 39.54,11.25 8.82,191.78 45.85,191.78 63.3,75.17 84.33,127.92
		100.65,127.92 122.65,75.19 129.33,127.92 165.36,127.92 	"/>
	<polygon class="st0" points="459.76,10.48 425.78,10.48 404.94,62.3 385.27,10.48 351.58,10.48 320.87,191.02 357.89,191.02 375.34,74.4
		396.37,127.16 412.7,127.16 434.69,74.43 441.37,127.16 477.41,127.16 	"/>
	<polygon class="st0" points="1110.66,10.48 1076.67,10.48 1055.84,62.3 1036.17,10.48 1002.48,10.48 971.76,191.02 1008.79,191.02
		1026.24,74.4 1047.27,127.16 1063.59,127.16 1085.59,74.43 1092.27,127.16 1128.3,127.16 	"/>
	<path class="st0" d="M294.93,113.1c-11.88,11.36-28.65,17.3-45.94,17.3c-17.3,0-34.07-5.94-45.95-17.3c-12.4-11.87-18.34-28.13-18.34-43.5
		c0-15.55,5.94-31.98,18.34-43.68c11.88-11.35,28.65-17.29,45.95-17.29c17.29,0,34.06,5.94,45.94,17.29
		c12.41,11.7,18.34,28.13,18.34,43.68C313.27,84.98,307.33,101.23,294.93,113.1z M225.4,47.24c-6.29,6.12-9.26,14.68-9.26,22.88
		c0,10.31,4.89,17.47,9.26,21.67c5.59,5.41,13.45,9.25,23.59,9.25c10.31,0,17.99-3.67,23.41-9.08c5.42-5.41,9.44-13.45,9.44-22.36
		c0-9.08-4.02-17.12-9.44-22.36c-6.46-6.12-15.37-9.26-23.41-9.26C240.6,37.98,231.69,40.96,225.4,47.24z"/>
	<path class="st0" d="M572.64,36.17h-35.99v19.39h34.06v25.69h-34.06v20.09h35.99v25.68h-66.21V10.48h66.21V36.17z"/>
	<path class="st0" d="M601.67,127.01V10.48h30.22l55.73,71.28V10.48h30.22v116.53h-30.22L631.9,55.74v71.27H601.67z"/>
	<path class="st0" d="M801.91,36.17v90.84h-30.23V36.17h-24.81V10.48h79.84v25.69H801.91z"/>
	<path class="st0" d="M885.97,10.48V79.5c0,4.89,0.18,12.4,5.94,17.99c3.5,3.31,9.09,5.59,14.33,5.59c5.24,0,10.66-2.09,13.98-5.06
		c6.99-6.12,6.81-14.68,6.81-21.14V10.48h30.23V77.4c0,12.23-0.53,24.98-13.1,37.73c-9.78,9.97-22.01,14.51-38.43,14.51
		c-18.34,0-31.45-6.29-38.61-13.97c-10.13-11.01-11.35-25.86-11.35-38.26V10.48H885.97z"/>
</g>
</svg>
