<svg enable-background="new 0 0 1139.06 198.2" viewBox="0 0 1139.06 198.2" xmlns="http://www.w3.org/2000/svg"><g fill="#fff"><path d="m147.72 11.25h-33.99l-20.83 51.82-19.67-51.82h-33.69l-30.72 180.53h37.03l17.45-116.61 21.03 52.75h16.32l22-52.73 6.68 52.73h36.03z"/><path d="m459.76 10.48h-33.98l-20.84 51.82-19.67-51.82h-33.69l-30.71 180.54h37.02l17.45-116.62 21.03 52.76h16.33l21.99-52.73 6.68 52.73h36.04z"/><path d="m1110.66 10.48h-33.99l-20.83 51.82-19.67-51.82h-33.69l-30.72 180.54h37.03l17.45-116.62 21.03 52.76h16.32l22-52.73 6.68 52.73h36.03z"/><path d="m294.93 113.1c-11.88 11.36-28.65 17.3-45.94 17.3-17.3 0-34.07-5.94-45.95-17.3-12.4-11.87-18.34-28.13-18.34-43.5 0-15.55 5.94-31.98 18.34-43.68 11.88-11.35 28.65-17.29 45.95-17.29 17.29 0 34.06 5.94 45.94 17.29 12.41 11.7 18.34 28.13 18.34 43.68 0 15.38-5.94 31.63-18.34 43.5zm-69.53-65.86c-6.29 6.12-9.26 14.68-9.26 22.88 0 10.31 4.89 17.47 9.26 21.67 5.59 5.41 13.45 9.25 23.59 9.25 10.31 0 17.99-3.67 23.41-9.08s9.44-13.45 9.44-22.36c0-9.08-4.02-17.12-9.44-22.36-6.46-6.12-15.37-9.26-23.41-9.26-8.39 0-17.3 2.98-23.59 9.26z"/><path d="m572.64 36.17h-35.99v19.39h34.06v25.69h-34.06v20.09h35.99v25.68h-66.21v-116.54h66.21z"/><path d="m601.67 127.01v-116.53h30.22l55.73 71.28v-71.28h30.22v116.53h-30.22l-55.72-71.27v71.27z"/><path d="m801.91 36.17v90.84h-30.23v-90.84h-24.81v-25.69h79.84v25.69z"/><path d="m885.97 10.48v69.02c0 4.89.18 12.4 5.94 17.99 3.5 3.31 9.09 5.59 14.33 5.59s10.66-2.09 13.98-5.06c6.99-6.12 6.81-14.68 6.81-21.14v-66.4h30.23v66.92c0 12.23-.53 24.98-13.1 37.73-9.78 9.97-22.01 14.51-38.43 14.51-18.34 0-31.45-6.29-38.61-13.97-10.13-11.01-11.35-25.86-11.35-38.26v-66.93z"/></g></svg>