<?xml version="1.0" encoding="utf-8"?>
<!-- Generator: Adobe Illustrator 23.1.0, SVG Export Plug-In . SVG Version: 6.00 Build 0)  -->
<svg version="1.1" id="Calque_1" xmlns="http://www.w3.org/2000/svg" xmlns:xlink="http://www.w3.org/1999/xlink" x="0px" y="0px"
	 viewBox="0 0 565.63 138.84" style="enable-background:new 0 0 565.63 138.84;" xml:space="preserve">
<style type="text/css">
	.st0{fill:#00A790;}
</style>
<g>
	<polygon class="st0" points="13.09,129.67 13.09,134.29 17.15,134.29 21.21,134.29 21.21,129.67 17.15,129.67 	"/>
	<polygon class="st0" points="21.21,120.44 9.03,120.44 9.03,125.06 9.03,129.67 13.09,129.67 13.09,125.06 21.21,125.06 
		21.21,129.67 25.27,129.67 25.27,125.06 25.27,120.44 22.54,120.44 	"/>
	<polygon class="st0" points="21.21,9.23 21.21,4.61 17.15,4.61 13.09,4.61 13.09,9.23 17.15,9.23 	"/>
	<polygon class="st0" points="22.54,18.47 25.27,18.47 25.27,13.85 25.27,9.23 21.21,9.23 21.21,13.85 13.09,13.85 13.09,9.23 
		9.03,9.23 9.03,13.85 9.03,18.47 21.21,18.47 	"/>
	<polygon class="st0" points="9.03,22.3 9.03,18.47 4.97,18.47 4.97,22.3 4.97,23.08 4.97,120.44 9.03,120.44 9.03,23.08 	"/>
	<polygon class="st0" points="543.6,129.67 543.6,134.29 547.66,134.29 551.72,134.29 551.72,129.67 547.66,129.67 	"/>
	<polygon class="st0" points="551.72,120.44 539.54,120.44 539.54,125.06 539.54,129.67 543.6,129.67 543.6,125.06 551.72,125.06 
		551.72,129.67 555.78,129.67 555.78,125.06 555.78,120.44 553.04,120.44 	"/>
	<polygon class="st0" points="551.72,9.23 551.72,4.61 547.66,4.61 543.6,4.61 543.6,9.23 547.66,9.23 	"/>
	<polygon class="st0" points="553.04,18.47 555.78,18.47 555.78,13.85 555.78,9.23 551.72,9.23 551.72,13.85 543.6,13.85 
		543.6,9.23 539.54,9.23 539.54,13.85 539.54,18.47 551.72,18.47 	"/>
	<path class="st0" d="M539.54,22.3v-3.83h-4.06v3.83v0.79H283.11H29.33V22.3v-3.83h-4.06v3.83v0.79v97.35h4.06v-4.62h253.78h252.36
		v4.62h4.06V23.08V22.3z M283.11,111.2H29.33v-0.16V27.7v0h253.78h252.36v83.5H283.11z"/>
	<polygon class="st0" points="555.78,18.47 555.78,22.3 555.78,23.08 555.78,120.44 559.84,120.44 559.84,115.66 559.84,111.05 
		559.84,27.7 559.84,23.08 559.84,22.3 559.84,18.47 	"/>
</g>
</svg>
