<svg enable-background="new 0 0 565.63 138.84" viewBox="0 0 565.63 138.84" xmlns="http://www.w3.org/2000/svg"><g fill="#00a790"><path d="m13.09 129.67v4.62h4.06 4.06v-4.62h-4.06z"/><path d="m21.21 120.44h-12.18v4.62 4.61h4.06v-4.61h8.12v4.61h4.06v-4.61-4.62h-2.73z"/><path d="m21.21 9.23v-4.62h-4.06-4.06v4.62h4.06z"/><path d="m22.54 18.47h2.73v-4.62-4.62h-4.06v4.62h-8.12v-4.62h-4.06v4.62 4.62h12.18z"/><path d="m9.03 22.3v-3.83h-4.06v3.83.78 97.36h4.06v-97.36z"/><path d="m543.6 129.67v4.62h4.06 4.06v-4.62h-4.06z"/><path d="m551.72 120.44h-12.18v4.62 4.61h4.06v-4.61h8.12v4.61h4.06v-4.61-4.62h-2.74z"/><path d="m551.72 9.23v-4.62h-4.06-4.06v4.62h4.06z"/><path d="m553.04 18.47h2.74v-4.62-4.62h-4.06v4.62h-8.12v-4.62h-4.06v4.62 4.62h12.18z"/><path d="m539.54 22.3v-3.83h-4.06v3.83.79h-252.37-253.78v-.79-3.83h-4.06v3.83.79 97.35h4.06v-4.62h253.78 252.36v4.62h4.06v-97.36-.78zm-256.43 88.9h-253.78v-.16-83.34h253.78 252.36v83.5z"/><path d="m555.78 18.47v3.83.78 97.36h4.06v-4.78-4.61-83.35-4.62-.78-3.83z"/></g></svg>