<svg enable-background="new 0 0 318.45 277.39" viewBox="0 0 318.45 277.39" xmlns="http://www.w3.org/2000/svg"><path d="m157.91 258.42 138.5-140.5 1.57-47.88-28.5-22.9-16.02-21.22h-51.39l-20.5 21.02-21.73 23.1-21.43-18.73-23.3-24.55-49.31-2.29-20.18 22.26-24.55 22.47 1.87 51.8 21.85 21.85 108.62 108.81z" fill="#d93936"/><g fill="#010202"><path d="m32.41 36.25h23v23h-23z"/><path d="m55.41 153.58v-23h-23v-71.33h-23v71.67h23v22.66h22.83v23h23v-23z"/><path d="m78.24 176.58h23v23h-23z"/><path d="m101.24 199.58h23v23h-23z"/><path d="m147.32 222.67h-23v23h22.92v22.91h23v-23h-22.92z"/><path d="m55.74 81.49h22.52v22.84h-22.52z"/><path d="m78.32 58.62h22.52v22.84h-22.52z"/><path d="m238.74 177h-22.92v22.67h-22.66v22.91h-22.92v23h23v-22.91h22.92v-22.67h22.66v-22.92h22.92v-23h-23z"/><path d="m261.74 131.08h23v23h-23z"/><path d="m284.74 59.25v-22.83h-23v-23h-69v22.5h-22.94v22.99h-22.39v-22.99h-23v-22.5h-69v22.74h69v22.76h23v22.83h22.52v-22.83h22.87v-22.46h68.94v22.96h23v71.5h23v-71.67z"/></g></svg>