<?xml version="1.0" encoding="utf-8"?>
<!-- Generator: Adobe Illustrator 23.1.0, SVG Export Plug-In . SVG Version: 6.00 Build 0)  -->
<svg version="1.1" xmlns="http://www.w3.org/2000/svg" xmlns:xlink="http://www.w3.org/1999/xlink" x="0px" y="0px"
	 viewBox="0 0 318.45 277.39" style="enable-background:new 0 0 318.45 277.39;" xml:space="preserve">
<style type="text/css">
	.st0{display:none;}
	.st1{display:inline;fill:#00A196;}
	.st2{fill:#D93936;}
	.st3{fill:#010202;}
</style>
<g id="Calque_1" class="st0">
	
		<image style="display:inline;overflow:visible;" width="512" height="512" xlink:href="Illu Home/zelda.jpg"  transform="matrix(0.6172 0 0 0.6172 9.0744 -39.0488)">
	</image>
</g>
<g id="Calque_3" class="st0">
	<rect x="-41.09" y="-70.72" class="st1" width="399.33" height="399.33"/>
</g>
<g id="Calque_5">
	<polygon class="st2" points="157.91,258.42 296.41,117.92 297.98,70.04 269.48,47.14 253.46,25.92 202.07,25.92 181.57,46.94 
		159.84,70.04 138.41,51.31 115.11,26.76 65.8,24.47 45.62,46.73 21.07,69.2 22.94,121 44.79,142.85 153.41,251.66 	"/>
</g>
<g id="Calque_2">
	<g>
		<rect x="32.41" y="36.25" class="st3" width="23" height="23"/>
		<polygon class="st3" points="55.41,153.58 55.41,130.58 32.41,130.58 32.41,59.25 9.41,59.25 9.41,130.92 32.41,130.92 
			32.41,153.58 55.24,153.58 55.24,176.58 78.24,176.58 78.24,153.58 		"/>
		<rect x="78.24" y="176.58" class="st3" width="23" height="23"/>
		<rect x="101.24" y="199.58" class="st3" width="23" height="23"/>
		<polygon class="st3" points="147.32,222.67 124.32,222.67 124.32,245.67 147.24,245.67 147.24,268.58 170.24,268.58 
			170.24,245.58 147.32,245.58 		"/>
		<rect x="55.74" y="81.49" class="st3" width="22.52" height="22.84"/>
		<rect x="78.32" y="58.62" class="st3" width="22.52" height="22.84"/>
		<polygon class="st3" points="238.74,177 215.82,177 215.82,199.67 193.16,199.67 193.16,222.58 170.24,222.58 170.24,245.58 
			193.24,245.58 193.24,222.67 216.16,222.67 216.16,200 238.82,200 238.82,177.08 261.74,177.08 261.74,154.08 238.74,154.08 		"/>
		<rect x="261.74" y="131.08" class="st3" width="23" height="23"/>
		<polygon class="st3" points="284.74,59.25 284.74,36.42 261.74,36.42 261.74,13.42 192.74,13.42 192.74,35.92 169.8,35.92 
			169.8,58.91 147.41,58.91 147.41,35.92 124.41,35.92 124.41,13.42 55.41,13.42 55.41,36.16 124.41,36.16 124.41,58.92 
			147.41,58.92 147.41,81.75 169.93,81.75 169.93,58.92 192.8,58.92 192.8,36.46 261.74,36.46 261.74,59.42 284.74,59.42 
			284.74,130.92 307.74,130.92 307.74,59.25 		"/>
	</g>
</g>
<g id="Calque_4" class="st0">
</g>
</svg>
