<svg enable-background="new 0 0 24 24" viewBox="0 0 24 30" xmlns="http://www.w3.org/2000/svg"><g fill="#53d9a9"><path d="m17.5 24h-9c-1.378 0-2.5-1.122-2.5-2.5v-11c0-.276.224-.5.5-.5h13c.276 0 .5.224.5.5v11c0 1.378-1.122 2.5-2.5 2.5zm-10.5-13v10.5c0 .827.673 1.5 1.5 1.5h9c.827 0 1.5-.673 1.5-1.5v-10.5z"/><path d="m14.5 11c-.276 0-.5-.224-.5-.5v-9.5h-3v9.5c0 .276-.224.5-.5.5s-.5-.224-.5-.5v-10c0-.276.224-.5.5-.5h4c.276 0 .5.224.5.5v10c0 .276-.224.5-.5.5z"/><path d="m12.5 9h-2c-.276 0-.5-.224-.5-.5s.224-.5.5-.5h2c.276 0 .5.224.5.5s-.224.5-.5.5z"/><path d="m11.5 7h-1c-.276 0-.5-.224-.5-.5s.224-.5.5-.5h1c.276 0 .5.224.5.5s-.224.5-.5.5z"/><path d="m12.5 5h-2c-.276 0-.5-.224-.5-.5s.224-.5.5-.5h2c.276 0 .5.224.5.5s-.224.5-.5.5z"/><path d="m11.5 3h-1c-.276 0-.5-.224-.5-.5s.224-.5.5-.5h1c.276 0 .5.224.5.5s-.224.5-.5.5z"/><path d="m9.5 11c-.176 0-.346-.093-.438-.257l-2.5-4.5c-.134-.241-.047-.545.194-.68.241-.134.546-.047.68.194l2.5 4.5c.134.241.047.545-.194.68-.076.043-.159.063-.242.063z"/><path d="m7.5 11c-.202 0-.393-.124-.468-.324l-1.5-4c-.097-.259.034-.547.292-.644.258-.095.547.034.644.292l1.5 4c.097.259-.034.547-.292.644-.058.022-.117.032-.176.032z"/><path d="m5.5 7c-1.496 0-2.5-1.551-2.5-3 0-1.436 1.169-4 3.5-4 .276 0 .5.224.5.5v1.5c0 .289.121.465.354.778.288.388.646.869.646 1.722 0 1.542-.958 2.5-2.5 2.5zm.5-5.936c-1.38.365-2 2.194-2 2.936 0 .817.534 2 1.5 2 .995 0 1.5-.505 1.5-1.5 0-.521-.198-.788-.449-1.125-.259-.348-.551-.741-.551-1.375z"/><path d="m18.5 11c-.095 0-.191-.027-.277-.084-.23-.153-.292-.463-.139-.693l1.916-2.874v-2.155l-2.194.731-2.906 3.875c-.165.222-.479.267-.7.1-.221-.166-.266-.479-.1-.7l3-4c.061-.082.146-.143.242-.174l3-1c.152-.052.319-.026.45.068s.208.245.208.406v3c0 .099-.029.195-.084.277l-2 3c-.096.145-.255.223-.416.223z"/><path d="m20.5 8c-.095 0-.191-.027-.277-.084l-3-2c-.23-.153-.292-.463-.139-.693.152-.23.462-.292.693-.139l3 2c.23.153.292.463.139.693-.096.145-.255.223-.416.223z"/><path d="m6.5 19h-1c-1.93 0-3.5-1.57-3.5-3.5s1.57-3.5 3.5-3.5h1c.276 0 .5.224.5.5s-.224.5-.5.5h-1c-1.378 0-2.5 1.122-2.5 2.5s1.122 2.5 2.5 2.5h1c.276 0 .5.224.5.5s-.224.5-.5.5z"/></g></svg>