<svg enable-background="new 0 0 306 269" viewBox="0 0 306 269" xmlns="http://www.w3.org/2000/svg"><g fill="#52d9a7"><path d="m49 8.5h69v22.7h-69z"/><path d="m186.3 8.5h69v23h-69z"/><path d="m26 31.3h23v23h-23z"/><path d="m26 125.7h23v23h-23z"/><path d="m48.8 148.7h23v23h-23z"/><path d="m71.8 171.7h23v23h-23z"/><path d="m94.8 194.7h23v23h-23z"/><path d="m117.9 217.8h23v23h-23z"/><path d="m140.8 240.7h23v23h-23z"/><path d="m141 54h22.5v22.8h-22.5z"/><path d="m49.3 76.6h22.5v22.8h-22.5z"/><path d="m71.9 53.7h22.5v22.8h-22.5z"/><path d="m163.8 217.7h23v23h-23z"/><path d="m186.8 194.8h23v23h-23z"/><path d="m209.4 172.1h23v23h-23z"/><path d="m232.3 149.2h23v23h-23z"/><path d="m255.3 126.2h23v23h-23z"/><path d="m255.3 31.5h23v23h-23z"/><path d="m118 31h23v23h-23z"/><path d="m163.4 31h23v23h-23z"/><path d="m3 54.3h23v71.7h-23z"/><path d="m278.3 54.3h23v71.7h-23z"/></g></svg>