<svg enable-background="new 0 0 100 100" viewBox="0 0 100 125" xmlns="http://www.w3.org/2000/svg"><path d="m2.198 43.638 10.306 30.568-4 6.385c-.154.247-.152.562.006.806.14.216.378.343.63.343.034 0 .068-.002.103-.007l6.141-.848c.043-.005.087-.015.13-.027.014-.005.028-.009.042-.015h.001c.095-.035.179-.088.249-.153l3.287-2.92c.202-.18.292-.454.235-.719l-4.948-22.969-.32-12.589 6.683 4.67 2.374 17.637c.009.085.034.168.071.244v.001c.017.035.036.067.058.099v.001s0 0 0 .001c.099.142.247.25.426.297.021.005.041.01.062.014.043.007.086.011.129.011.12 0 .236-.028.339-.081 0 0 0 0 0-.001.045-.022.088-.051.129-.083s.079-.07.112-.111l7.693-9.051 6.928 19.062-2.219 8.087c-.062.226-.015.467.127.653s.362.295.596.295h5.305 4.975c.371 0 .687-.271.742-.639l3.123-20.818 21.292.979 5.563 10.738-1.333 8.878c-.031.216.031.436.174.601.143.166.35.261.568.261h6.092 3.389c.389 0 .714-.298.747-.686l2.425-28.238.721-8.378 3.803 7.462c.132.258.394.409.668.409.088 0 .176-.016.262-.047.357-.134.559-.513.467-.883l-4.328-17.539c-.004-.017-.016-.027-.021-.043-.013-.042-.034-.076-.054-.115-.03-.057-.062-.11-.104-.156-.013-.015-.018-.033-.031-.047l-13.777-13.222c-.01-.01-.02-.019-.03-.027-.001-.001-.001-.001-.001-.001-.12-.105-.266-.165-.415-.181-.001 0-.001 0-.001 0-.001 0-.002 0-.002 0-.031-.004-.062-.005-.092-.004l-39.513.918-3.242-4.465c-.015-.021-.035-.034-.051-.053-.031-.036-.061-.07-.097-.101-.007-.005-.015-.008-.021-.013-.085-.063-.183-.103-.291-.122-.046-.009-.092-.015-.14-.015-.017 0-.032-.008-.05-.006l-16.436.951c-.01.001-.018.007-.028.008s-.019-.004-.029-.002c-.041.006-.074.027-.112.038-.049.016-.099.025-.143.05-.044.023-.078.057-.116.088-.036.03-.074.057-.104.093-.031.038-.051.081-.074.124-.022.042-.048.081-.062.127-.015.047-.016.098-.021.148-.004.04-.02.077-.017.118 0 .01.006.019.007.028s-.003.019-.002.028l.229 1.7-4.478-.664c-.026-.004-.051.005-.077.005-.062-.003-.122-.003-.181.01-.036.008-.068.021-.103.033-.052.019-.101.041-.147.07-.03.02-.057.039-.084.062-.042.036-.078.076-.111.121-.022.029-.043.058-.061.091-.008.016-.022.027-.029.044l-9.887 22.137c-.003.008-.002.016-.005.023-.033.081-.054.167-.057.255 0 .005-.002.009-.002.014-.003.084.009.17.038.253zm10.637 8.671-9.032-9.075 8.327-18.64zm-2.207 27.717 2.496-3.983 1.172 3.478zm5.017-1.199-1.596-4.735c-.006-.02-.012-.039-.02-.058l-9.381-27.825 8.298 8.338 4.824 22.393zm8.413-19.283-5.065-37.64c-.001-.006-.001-.013-.002-.02l-.242-1.796 14.628-.847zm10.635-39.336 2.525 3.479c.024.032.041.068.069.096l9 12.396-21 24.703zm5.258 56.433 1.853 5.097h-3.251zm7.252 5.096h-3.803l-9.723-26.754 16.565 6.497zm32.542-5.968 3.093 5.969h-3.988zm7.026 5.968h-2.244l-4.554-8.79c-.009-.015-.013-.031-.023-.046l-5.453-10.526 14.528-6.889zm4.823-38.628.26-3.009 1.682 6.817zm-.877-7.298-1.544 17.945-15.853 7.516-22.09-1.016-17.243-6.763 43.647-30.236zm-15.488-12.711-38.567 26.717 11.15-13.117c.224-.264.239-.646.036-.926l-8.594-11.838zm-54.757 21.043-6.459-4.513-.444-17.492 4.023.597z" fill="#929292"/></svg>