<svg height="667" viewBox="0 0 718 667" width="718" xmlns="http://www.w3.org/2000/svg" xmlns:xlink="http://www.w3.org/1999/xlink"><filter id="a" filterUnits="userSpaceOnUse" height="667" width="718" x="0" y="0"><feOffset dx="6.122" dy="3.394" in="SourceAlpha" result="offset"/><feGaussianBlur result="blur" stdDeviation="2.646"/><feFlood flood-opacity=".14" result="flood"/><feComposite in2="blur" operator="in" result="composite"/><feBlend in="SourceGraphic" result="blend"/></filter><filter id="b" filterUnits="userSpaceOnUse" height="42" width="699" x="6" y="3"><feFlood flood-color="#f5f5f5" result="flood"/><feComposite in2="SourceGraphic" operator="in" result="composite"/><feBlend in2="SourceGraphic" result="blend"/></filter><path d="m0 3h705v654h-705z" fill="#fff" filter="url(#a)"/><path d="m6 3h699v42h-699z" fill="#272822" filter="url(#b)"/><path d="m1114.34 2769a7.5 7.5 0 1 1 -7.66 7.5 7.583 7.583 0 0 1 7.66-7.5z" fill="#20c54a" fill-rule="evenodd" transform="translate(-1022 -2753)"/><ellipse cx="64.5" cy="23.5" fill="#f07a46" rx="7.66" ry="7.5"/><circle cx="38.655" cy="23.5" fill="#e22328" r="7.655"/><g fill="#acacac"><path d="m1677 2767h33" fill-rule="evenodd" stroke="#acacac" stroke-linecap="round" stroke-linejoin="round" stroke-width="3" transform="translate(-1022 -2753)"/><path d="m1677 2789h33" fill-rule="evenodd" stroke="#acacac" stroke-linecap="round" stroke-linejoin="round" stroke-width="3" transform="translate(-1022 -2753)"/><rect height="24" rx="10" width="344" x="157" y="13"/><path d="m1677 2778h33" fill-rule="evenodd" stroke="#acacac" stroke-linecap="round" stroke-linejoin="round" stroke-width="3" transform="translate(-1022 -2753)"/></g></svg>