<svg height="654" viewBox="0 0 708 654" width="708" xmlns="http://www.w3.org/2000/svg" xmlns:xlink="http://www.w3.org/1999/xlink"><filter id="a" filterUnits="userSpaceOnUse" height="42" width="708" x="0" y="0"><feFlood flood-color="#f5f5f5" result="flood"/><feComposite in2="SourceGraphic" operator="in" result="composite"/><feBlend in2="SourceGraphic" result="blend"/></filter><path d="m0 0h708v654h-708z" fill="#e1e1e1"/><path d="m0 0h708v42h-708z" fill="#272822" filter="url(#a)"/><path d="m280.342 2769a7.5 7.5 0 1 1 -7.658 7.5 7.582 7.582 0 0 1 7.658-7.5z" fill="#20c54a" fill-rule="evenodd" transform="translate(-194 -2756)"/><ellipse cx="58.5" cy="20.5" fill="#f07a46" rx="7.656" ry="7.5"/><circle cx="32.656" cy="20.5" fill="#e22328" r="7.656"/><g fill="#acacac"><path d="m843 2767h33" fill-rule="evenodd" stroke="#acacac" stroke-linecap="round" stroke-linejoin="round" stroke-width="3" transform="translate(-194 -2756)"/><path d="m843 2789h33" fill-rule="evenodd" stroke="#acacac" stroke-linecap="round" stroke-linejoin="round" stroke-width="3" transform="translate(-194 -2756)"/><rect height="24" rx="10" width="344" x="151" y="10"/><path d="m843 2778h33" fill-rule="evenodd" stroke="#acacac" stroke-linecap="round" stroke-linejoin="round" stroke-width="3" transform="translate(-194 -2756)"/></g></svg>