<svg viewBox="0 0 64 80" xmlns="http://www.w3.org/2000/svg"><g fill="#53d9a9"><path d="m61 26h-3v-3a1 1 0 0 0 -1-1h-6a1 1 0 0 0 -1 1v3h-2v-13a1 1 0 0 0 -1-1h-1v-3a1 1 0 0 0 -1-1h-6a1 1 0 0 0 -1 1v3h-2v-3a1 1 0 0 0 -1-1h-6a1 1 0 0 0 -1 1v3h-2v-3a1 1 0 0 0 -1-1h-6a1 1 0 0 0 -1 1v3h-1a1 1 0 0 0 -1 1v14a1 1 0 0 0 1 1h9v12h-2v-3a1 1 0 0 0 -1-1h-6a1 1 0 0 0 -1 1v3h-2v-3a1 1 0 0 0 -1-1h-6a1 1 0 0 0 -1 1v3h-3a1 1 0 0 0 -1 1v14a1 1 0 0 0 1 1h44a1 1 0 0 0 1-1v-13h13a1 1 0 0 0 1-1v-14a1 1 0 0 0 -1-1zm-9-2h4v2h-4zm-12-14h4v2h-4zm-10 0h4v2h-4zm-10 0h4v2h-4zm-2 4h28v12h-28zm0 24h4v2h-4zm-10 0h4v2h-4zm-4 4h10v12h-10zm42 12h-30v-12h30zm14-14h-32v-12h32z"/><path d="m20 18h2v6h-2z"/><path d="m57 32h2v6h-2z"/></g></svg>