<svg enable-background="new 0 0 64 64" fill="#929292" viewBox="0 0 64 80" xmlns="http://www.w3.org/2000/svg"><path d="m55.293 30.293-26.236 26.236c-2.884 2.883-6.717 4.471-10.793 4.471-8.417 0-15.264-6.848-15.264-15.264 0-4.077 1.588-7.91 4.471-10.793l32.236-32.236-1.414-1.414-32.236 32.236c-3.261 3.26-5.057 7.596-5.057 12.207 0 9.52 7.745 17.264 17.264 17.264 4.61 0 8.946-1.796 12.207-5.057l26.236-26.236z"/><path d="m22 39c-2.206 0-4 1.794-4 4s1.794 4 4 4 4-1.794 4-4-1.794-4-4-4zm0 6c-1.103 0-2-.897-2-2s.897-2 2-2 2 .897 2 2-.897 2-2 2z"/><path d="m16 49c-1.654 0-3 1.346-3 3s1.346 3 3 3 3-1.346 3-3-1.346-3-3-3zm0 4c-.551 0-1-.448-1-1s.449-1 1-1 1 .448 1 1-.449 1-1 1z"/><path d="m34.515 9h16.971v2h-16.971z" transform="matrix(.7071 -.7071 .7071 .7071 5.5233 33.3345)"/><path d="m42.101 11h19.799v2h-19.799z" transform="matrix(.7071 -.7071 .7071 .7071 6.7452 40.2843)"/><path d="m60.586 1h2.828v2h-2.828z" transform="matrix(.7071 -.7071 .7071 .7071 16.7452 44.4264)"/><path d="m54.293 19.293-23.667 23.667c-.489-2.028-1.448-3.872-2.765-5.407l15.846-15.846-1.414-1.414-15.846 15.846c-1.535-1.317-3.379-2.276-5.407-2.765l14.667-14.667-1.414-1.414-15.735 15.735c-.187-.008-.37-.028-.558-.028-7.168 0-13 5.832-13 13s5.832 13 13 13 13-5.832 13-13c0-.188-.02-.371-.028-.558l24.735-24.735zm-44.293 22.707c0 1.637-1.319 2.967-2.949 2.995.177-1.938.857-3.731 1.911-5.249.653.56 1.038 1.369 1.038 2.254zm8 15c-5.73 0-10.444-4.405-10.95-10.005 2.734-.028 4.95-2.255 4.95-4.995 0-1.493-.655-2.855-1.759-3.788 1.647-1.641 3.814-2.753 6.225-3.092l-3.173 3.173 1.414 1.414 4.619-4.619c5.441.658 9.674 5.296 9.674 10.912 0 6.065-4.935 11-11 11z"/><path d="m56.586 16h2.828v2h-2.828z" transform="matrix(.7071 -.7071 .7071 .7071 4.967 45.9914)"/><path d="m57.586 27h2.828v2h-2.828z" transform="matrix(.7071 -.7071 .7071 .7071 -2.5183 49.9203)"/><path d="m23.586 50h2.828v2h-2.828z" transform="matrix(.7071 -.7071 .7071 .7071 -28.7401 32.6152)"/><path d="m37 61h2v2h-2z"/><path d="m37 57h2v2h-2z"/><path d="m39 59h2v2h-2z"/><path d="m35 59h2v2h-2z"/><path d="m57 55h2v2h-2z"/><path d="m57 51h2v2h-2z"/><path d="m59 53h2v2h-2z"/><path d="m55 53h2v2h-2z"/><path d="m5 23h2v2h-2z"/><path d="m5 19h2v2h-2z"/><path d="m7 21h2v2h-2z"/><path d="m3 21h2v2h-2z"/><path d="m11 5h2v2h-2z"/><path d="m11 1h2v2h-2z"/><path d="m13 3h2v2h-2z"/><path d="m9 3h2v2h-2z"/><path d="m55 40h2v2h-2z"/><path d="m55 36h2v2h-2z"/><path d="m57 38h2v2h-2z"/><path d="m53 38h2v2h-2z"/></svg>