<svg enable-background="new 0 0 733.17 48.01" viewBox="0 0 733.17 48.01" xmlns="http://www.w3.org/2000/svg" xmlns:xlink="http://www.w3.org/1999/xlink"><clipPath id="a"><path d="m-1.01-.99h919.29v460.33h-919.29z"/></clipPath><clipPath id="b"><path d="m-1.01-.99h919.29v460.33h-919.29z"/></clipPath><clipPath id="c"><path d="m-1.01-.99h919.29v460.33h-919.29z"/></clipPath><clipPath id="d"><path d="m-1.01-.99h919.29v460.33h-919.29z"/></clipPath><clipPath id="e"><path d="m-1.01-.99h919.29v460.33h-919.29z"/></clipPath><path clip-path="url(#a)" d="m733.24 48.82h-733.25v-45.69c0-1.72 1.4-3.12 3.12-3.12h727c1.72 0 3.12 1.4 3.12 3.12v45.69z" fill="#e6e7e8"/><path clip-path="url(#b)" d="m705.09 43.63h-642.8c-.2 0-.36-.16-.36-.36v-18.58c0-.2.16-.36.36-.36h642.8c.2 0 .36.16.36.36v18.58c.01.2-.16.36-.36.36" fill="#fff"/><path clip-path="url(#c)" d="m727.04 31.07h-13.28c-.18 0-.33-.15-.33-.33v-1.89c0-.18.15-.33.33-.33h13.28c.18 0 .33.15.33.33v1.89c-.01.18-.15.33-.33.33m0 4.18h-13.28c-.18 0-.33-.15-.33-.33v-1.89c0-.18.15-.33.33-.33h13.28c.18 0 .33.15.33.33v1.89c-.01.18-.15.33-.33.33m0 4.19h-13.28c-.18 0-.33-.15-.33-.33v-1.89c0-.18.15-.33.33-.33h13.28c.18 0 .33.15.33.33v1.89c-.01.18-.15.33-.33.33m-706.55-27.47c0 2.73-2.24 4.94-4.99 4.94-2.76 0-4.99-2.21-4.99-4.94s2.24-4.94 4.99-4.94c2.76 0 4.99 2.21 4.99 4.94m15.32 0c0 2.73-2.24 4.94-4.99 4.94-2.76 0-4.99-2.21-4.99-4.94s2.24-4.94 4.99-4.94 4.99 2.21 4.99 4.94m15.32 0c0 2.73-2.24 4.94-4.99 4.94-2.76 0-4.99-2.21-4.99-4.94s2.24-4.94 4.99-4.94 4.99 2.21 4.99 4.94" fill="#bcbec0"/><path clip-path="url(#d)" d="m30.82 24.33h-22.42c-.76 0-1.38.61-1.38 1.37v16.57c0 .76.62 1.37 1.38 1.37h22.42zm22.42 0h-20.97v19.3h20.97c.76 0 1.38-.61 1.38-1.37v-16.56c0-.76-.62-1.37-1.38-1.37" fill="#fff"/><path clip-path="url(#e)" d="m21.3 33.64h-3.49l1.69-1.67c.27-.27.27-.7 0-.97s-.71-.27-.98 0l-2.86 2.84c-.02.02-.04.04-.06.06-.01.01-.01.01-.02.02l-.02.03-.02.03c0 .01-.01.02-.01.03l-.01.03-.01.03-.01.03c0 .01-.01.02-.01.03l-.01.03-.01.03v.04.03.07.07.01c0 .02 0 .04.01.06v.01c0 .02.01.03.01.05v.01c.01.02.01.04.02.06.03.08.08.15.15.22l.01.01 2.87 2.83c.27.27.71.27.98 0s.27-.7 0-.97l-1.69-1.67h3.49c.38 0 .69-.31.69-.69s-.32-.69-.71-.69m19.03 1.38h3.49l-1.69 1.67c-.27.27-.27.7 0 .97s.71.27.98 0l2.86-2.83c.02-.02.04-.04.06-.06.01-.01.01-.01.02-.02l.02-.03.02-.03c0-.01.01-.02.01-.03l.01-.03.01-.03c.01-.01.01-.02.01-.03s.01-.02.01-.03l.01-.03.01-.03.01-.04c0-.01 0-.02 0-.03v-.07c0-.02 0-.05 0-.07v-.01c0-.02-.01-.04-.01-.06v-.01c0-.02-.01-.03-.01-.05 0-.01 0-.01 0-.01-.01-.02-.01-.04-.02-.06-.03-.08-.08-.15-.15-.22l-.01-.01-2.86-2.84c-.27-.27-.71-.27-.98 0s-.27.7 0 .97l1.69 1.67h-3.49c-.38 0-.69.31-.69.68s.31.69.69.7" fill="#bcbec0"/></svg>