<svg enable-background="new 0 0 128 128" viewBox="0 0 128 160" xmlns="http://www.w3.org/2000/svg"><path d="m98.962891 3.0742188c-.7375 0-1.462891.2761718-1.962891.8261718l-1.300781 1.2988282c-1.1 1.0999999-1.09961 2.8003906-.09961 3.9003906l-5.798828 5.8007816c-1.1-1-2.90039-.900391-3.90039.099609l-26.701172 26.699219c-1.1-1-2.798438-.998438-3.898438.101562l-1.90039 1.898438c-.5.5-.800782 1.3-.800782 2 0 .8.300782 1.5.800782 2l1.798828 1.800781-8.59961 8.599609-3.40039 3.400391c-.5.5-.798828 1.3-.798828 2 0 .8.298828 1.5.798828 2l5.701172 5.699219c.6.6 1.3.800781 2 .800781s1.5-.300781 2-.800781l12-12 1.798828 1.800781c.5.5 1.3.800781 2 .800781.8 0 1.5-.300781 2-.800781l1.90039-1.900391c1.1-1.1 1.09961-2.80039.09961-3.90039l1.101562-1.09961.298828.300782c1.1 1.1 2.800391 1.099609 3.900391.099609l.5.5c2.9 2.9 2.9 7.699609 0 10.599609l-21 21c-2.9 2.9-7.699609 2.9-10.599609 0l-17.59961-17.5c-1.4-1.4-3.801172-1.4-5.201172 0l-1 1c-.7.7-1.099609 1.59961-1.099609 2.59961s.399609 1.901562 1.099609 2.601562l26.59961 26.599609c-.1.6-.199219 1.3-.199219 2v4.40039h-14.400391c-2.1 0-3.798828-1.70078-3.798828-3.80078v-5.699219l6 5.999999c.7.7 1.5 1 2.5 1 .9 0 1.8-.4 2.5-1l.199219-.20117c.7-.7 1-1.5 1-2.5 0-.9-.4-1.8-1-2.500001l-20.199219-20c-1.3-1.3-3.60039-1.3-4.90039 0l-.201172.201172c-1.4 1.4-1.3 3.598438 0 4.898438l11.101562 11.101562v8.599609c0 3.7 2.998828 6.79883 6.798828 6.79883h14.400391v3.80078h-28.900391c-1.9 0-3.5 1.6-3.5 3.5v3.59961c0 1.9 1.6 3.5 3.5 3.5h87.800781c1.9 0 3.5-1.6 3.5-3.5v-3.59961c0-1.9-1.6-3.5-3.5-3.5h-28.800781l-6.099609-14.69922 23-22.999999c10.8-10.8 10.8-28.2 0-39l-1.099609-1.101562c1-1.1 1.00039-2.798438-.09961-3.898438l-.300781-.300781 4.300781-4.300781c1.099999-1.1 1.099609-2.798438.09961-3.898438l5.798829-5.800781c1.1 1 2.80039 1.000391 3.90039-.099609l1.30078-1.300782c.5-.5.79883-1.3.79883-2 0-.8-.29883-1.5-.79883-2l-9.40039-9.6992184c-.55-.55-1.299609-.8261718-2.037109-.8261718zm.037109 3.125 9.30078 9.3007812-1.10156 1.099609-9.298829-9.2988278zm-1.300781 5.0000002 5.500001 5.5-5.798829 5.800781-5.59961-5.5zm-9.898438 6.101562 9.298828 9.298828-4.40039 4.400391c-1.1 1.1-1.1 2.9 0 4l.300781.300781-2.599609 2.59961c-1.4-1-3.100391-1.5-4.900391-1.5-4.7 0-8.5 3.8-8.5 8.5 0 1.8.6 3.50039 1.5 4.90039l-2.5 2.5-.199219-.40039c-1.1-1.1-2.9-1.1-4 0l-1.201172 1.199218-9.298828-9.298828zm5.59961 21.898438 1.099609 1.101562c9.6 9.6 9.6 25.198828 0 34.798828l-22.300781 22.201172c-2.2-3.7-5.898828-5.800781-10.298828-5.800781-4.5 0-9.200782 2.4-11.300782 7l-25.40039-25.400391c-.2-.1-.199219-.30039-.199219-.40039s-.000781-.3.199219-.5l1-1c.2-.2.4-.199219.5-.199219s.3-.000781.5.199219l17.601562 17.601562c4.1 4.1 10.798438 4.1 14.898438 0l21-21c4.1-4.1 4.1-10.80039 0-14.90039l-.5-.5.601562-.59961c1.4 1 3.098438 1.5 4.898438 1.5 4.7 0 8.5-3.8 8.5-8.5 0-1.8-.6-3.50039-1.5-4.90039zm-7.900391.201172c3 0 5.5 2.5 5.5 5.5s-2.5 5.5-5.5 5.5-5.5-2.5-5.5-5.5 2.5-5.5 5.5-5.5zm-28.199219 4.599609 13.199219 13.199219-1.699219 1.701172-13.201172-13.201172zm.09961 7.699219 5.5 5.5-12.09961 11.90039-5.5-5.5 2.298828-2.298828 3.800782 3.699219c.3.3.699609.400391 1.099609.400391s.799609-.100391 1.099609-.400391c.6-.6.6-1.499609 0-2.099609l-3.699218-3.701172zm-37.59961 29.800781c.1 0 .198438-.000391.398438.099609l20.201172 20.000001c.1.1.099609.30039.099609.40039s.000391.20039-.099609.40039l-.201172.19922c-.1.1-.298438.09961-.398438.09961s-.20039.00039-.40039-.09961l-20.201172-20.000001c-.1-.2-.1-.598828 0-.798828l.201172-.201172c.1-.1.30039-.099609.40039-.099609zm42.09961 13c3.8 0 7.00039 2.099219 8.40039 5.69922l6.898438 16.70117c.3.7.80039 1 1.40039 1h29.800781c.3 0 .5.2.5.5v3.59961c0 .3-.2.5-.5.5h-87.800781c-.3 0-.5-.2-.5-.5v-3.59961c0-.3.2-.5.5-.5h30.400391.300781.298828 10.400391c.8 0 1.5-.7 1.5-1.5s-.7-1.5-1.5-1.5h-9.5v-11.09961c0-5.999999 4.800391-9.30078 9.400391-9.30078zm-.09961 2.900391c-3.8 0-6.90039 3.100389-6.90039 6.900389s3.10039 6.89844 6.90039 6.89844 6.898438-3.09844 6.898438-6.89844-3.098438-6.900389-6.898438-6.900389zm0 2.999999c2.2 0 3.898438 1.80039 3.898438 3.90039s-1.798438 3.89844-3.898438 3.89844c-2.2 0-3.90039-1.79844-3.90039-3.89844s1.80039-3.90039 3.90039-3.90039z" fill="#53d9a9"/></svg>