<svg enable-background="new 0 0 100 100" viewBox="0 0 100 125" xmlns="http://www.w3.org/2000/svg"><path d="m81.608 45.795c0 .907.735 1.641 1.641 1.641s1.641-.735 1.641-1.641v-4.165h-3.283v4.165z" fill="#53d9a9"/><path d="m84.891 34.183c0-.907-.735-1.641-1.641-1.641s-1.641.735-1.641 1.641v4.165h3.283v-4.165z" fill="#53d9a9"/><path d="m89.055 38.348h-4.165v3.283h4.165c.907 0 1.641-.735 1.641-1.641.001-.908-.734-1.642-1.641-1.642z" fill="#53d9a9"/><path d="m77.443 38.348c-.907 0-1.641.735-1.641 1.641 0 .907.735 1.641 1.641 1.641h4.165v-3.283h-4.165z" fill="#53d9a9"/><path d="m43.064 93.359c0 .907.735 1.641 1.641 1.641.907 0 1.641-.735 1.641-1.641v-4.165h-3.283v4.165z" fill="#53d9a9"/><path d="m46.347 81.747c0-.907-.735-1.641-1.641-1.641-.907 0-1.641.735-1.641 1.641v4.165h3.283v-4.165z" fill="#53d9a9"/><path d="m50.511 85.911h-4.165v3.283h4.165c.907 0 1.641-.735 1.641-1.641.001-.907-.734-1.642-1.641-1.642z" fill="#53d9a9"/><path d="m38.899 85.911c-.907 0-1.641.735-1.641 1.641 0 .907.735 1.641 1.641 1.641h4.165v-3.283h-4.165z" fill="#53d9a9"/><g fill="none" stroke="#53d9a9" stroke-linecap="round" stroke-miterlimit="10" stroke-width="3"><path d="m17.304 92.508-10.026-10.026c-1.497-1.497-1.497-3.924 0-5.421l26.537-26.537c1.497-1.497 3.924-1.497 5.421 0l10.026 10.026c1.497 1.497 1.497 3.924 0 5.421l-26.537 26.537c-1.497 1.497-3.924 1.497-5.421 0z" stroke-linejoin="round"/><path d="m52.106 57.893-1.461 1.473-1.29 1.278-.682-.682-8.85-8.85-.682-.682 1.29-1.278 1.461-1.473c1.351-1.351 3.53-1.351 4.881 0l5.332 5.332c1.352 1.352 1.352 3.531.001 4.882z" stroke-linejoin="round"/><path d="m37.545 56.822-23.969 23.969" stroke-linejoin="round"/><path d="m42.963 62.241-23.968 23.969" stroke-linejoin="round"/><path d="m93.008 10.024-3.247-3.246" stroke-linejoin="round"/><path d="m76.488 19.062-24.139 24.138-5.027 5.028 4.236 4.236 5.027-5.028 24.139-24.138" stroke-linejoin="round"/><path d="m80.719 23.298 5.476.383 7.305-13.165-4.231-4.23-13.164 7.304.383 5.477" stroke-linejoin="round"/><path d="m40.432 49.153-11.491-11.491" stroke-linejoin="round"/><path d="m62.124 70.845-11.479-11.479" stroke-linejoin="round"/><path d="m71.071 61.922-14.486-14.486" stroke-linejoin="round"/><path d="m52.349 43.2-14.485-14.485" stroke-linejoin="round"/><path d="m28.942 37.657c-5.874 2.385-12.863 1.198-17.628-3.568-4.477-4.477-5.796-10.913-3.957-16.546" stroke-linejoin="round"/><path d="m17.756 7.146c5.627-1.844 12.069-.52 16.546 3.957 4.76 4.76 5.953 11.743 3.568 17.618" stroke-linejoin="round"/><path d="m62.128 70.844c-2.385 5.874-1.198 12.863 3.568 17.628 4.477 4.477 10.913 5.796 16.546 3.957" stroke-linejoin="round"/><path d="m71.066 61.917c5.874-2.385 12.857-1.193 17.618 3.568 4.477 4.477 5.801 10.918 3.957 16.546" stroke-linejoin="round"/><path d="m17.756 7.146 6.883 6.883c1.923 1.923 1.923 5.034.005 6.951l-3.452 3.452c-1.918 1.918-5.028 1.918-6.951-.005l-6.883-6.883" stroke-linejoin="round"/><path d="m82.242 92.428-6.883-6.883c-1.923-1.923-1.923-5.034-.005-6.951l3.452-3.452c1.918-1.918 5.028-1.918 6.951.005l6.883 6.883" stroke-linejoin="round"/><path d="m37.258 29.331-1.716 1.727"/><path d="m64.78 68.187-1.717 1.727"/></g></svg>