<svg enable-background="new 0 0 296.3 241.9" viewBox="0 0 296.3 241.9" xmlns="http://www.w3.org/2000/svg"><path d="m275 235h-254c-6.6 0-12-5.4-12-12v-134-37c0-6.6 5.4-12 12-12h254c6.6 0 12 5.4 12 12v37 134c0 6.6-5.4 12-12 12z" fill="none" stroke="#53d9a9" stroke-linejoin="round" stroke-miterlimit="20" stroke-width="7"/><g fill="#53d9a9"><path d="m35.5 109.5h19v19h-19z"/><path d="m35.5 151.5h19v19h-19z"/><path d="m35.5 192.5h19v19h-19z"/><path d="m75.5 109.5h19v19h-19z"/><path d="m75.5 151.5h19v19h-19z"/><path d="m75.5 192.5h19v19h-19z"/><path d="m119.5 109.5h19v19h-19z"/><path d="m119.5 151.5h19v19h-19z"/><path d="m119.5 192.5h19v19h-19z"/><path d="m159.5 109.5h19v19h-19z"/><path d="m159.5 151.5h19v19h-19z"/><path d="m159.5 192.5h19v19h-19z"/><path d="m202.5 109.5h19v19h-19z"/><path d="m202.5 151.5h19v19h-19z"/><path d="m242.5 109.5h19v19h-19z"/><path d="m242.5 151.5h19v19h-19z"/></g><path d="m9 83h277" fill="none" stroke="#53d9a9" stroke-linejoin="round" stroke-miterlimit="20" stroke-width="7"/><g fill="#53d9a9"><path d="m56 4h17v56h-17z"/><path d="m224 4h17v56h-17z"/></g></svg>