<svg enable-background="new 0 0 244 172" viewBox="0 0 244 172" xmlns="http://www.w3.org/2000/svg"><g fill="#53d9a9" stroke="#53d9a9" transform="matrix(7.0274 0 0 7.0274 74.315 -6969.7)"><path d="m-6.6 992.9c-1 0-1.7.8-1.7 1.7v15.7c0 1 .8 1.7 1.7 1.7h26.8c1 0 1.7-.8 1.7-1.7v-15.7c0-1-.8-1.7-1.7-1.7zm0 1h26.8c.4 0 .7.3.7.7v15.7c0 .4-.3.7-.7.7h-26.8c-.4 0-.7-.3-.7-.7v-15.7c-.1-.3.2-.7.7-.7z"/><path d="m-10 1013.9c0 1.1.7 1.9 1.6 1.9h30.3c.9 0 1.6-.8 1.6-1.9z"/><path d="m4.3 1014.5c-.1 0-.1-.1-.1-.1 0-.1.1-.1.1-.1h5c.1 0 .1.1.1.1 0 .1-.1.1-.1.1z"/></g></svg>