<svg enable-background="new 0 0 93.6 127.5" viewBox="0 0 93.6 127.5" xmlns="http://www.w3.org/2000/svg"><g fill="#5dab93"><path d="m45.8 3.8c-19.9 0-40.5 3.7-40.5 9.9v23.1c0 2.1 2.4 3.9 6.3 5.4v72.9c0 5.2 17.6 8 34.3 8 17.9 0 32.5-3.1 34.1-7.2.1-.3.2-.5.2-.8h-.5.5l-.2-72.8c4.1-1.5 6.5-3.3 6.5-5.5v-23.1c-.2-6.2-20.8-9.9-40.7-9.9zm0 1c23.6 0 39.5 4.6 39.5 8.9s-15.9 8.9-39.5 8.9-39.5-4.6-39.5-8.9 15.8-8.9 39.5-8.9zm33.2 110.3c0 .2 0 .3-.1.5-1.2 3.1-14.2 6.5-33.2 6.5-19.6 0-33.3-3.7-33.3-7v-72.5c7.8 2.7 20.6 4.1 33.3 4.1 12.5 0 25.2-1.4 33-4zm6.3-78.3c0 4.3-15.9 8.9-39.5 8.9s-39.5-4.6-39.5-8.9v-20.8c4.3 4.8 22.2 7.6 39.5 7.6s35.2-2.8 39.5-7.6z" stroke="#5dab93" stroke-miterlimit="10" stroke-width="4"/><ellipse cx="45.6" cy="13.6" rx="28.7" ry="4.2"/></g></svg>