<svg enable-background="new 0 0 816.4 614.4" viewBox="0 0 816.4 614.4" xmlns="http://www.w3.org/2000/svg"><g fill="#474747"><path d="m566.1 5.9c17.5.4 34.9 2.7 52.3 5 12.6 1.6 23.1 8.3 32.7 16.5 25.1 21.4 45.1 47.1 62.2 75.1 7.2 11.8 13.7 24.2 19.9 36.6 4.8 9.6 12.7 15.1 21.9 20.1 20.9 11.3 38.2 26.7 49.5 47.8 3.3 6.1 4.9 13.5 5.6 20.5 2.6 23.5-5.4 44.7-16.1 65-8.4 16.1-18.1 31.5-31.7 43.8-6.4 5.9-13.5 11.1-20.8 15.9-5 3.3-8.7 6.7-11.1 12.5-5.7 13.9-14.8 25.6-24.6 36.9-23 26.4-49.5 48.7-78.5 68.3-27.1 18.3-55.4 34.5-85.2 48.1-24.3 11.1-48.8 21.7-73.5 31.9-21.8 9-43.7 17.8-66 25.3-16.4 5.5-33.4 9.2-50.3 13.3-14.4 3.5-28.9 6.8-43.6 9.5-22.3 4-44.7 7.6-67.1 10.9-31.2 4.5-62.5 3.2-93.8 1.1-20-1.3-39.9-4.1-58.7-11.6-19.3-7.6-34.9-20.1-44-39.3-4.2-8.8-6-18.5-5.7-28.3.9-32.7 2.2-65.4 2.8-98.2.6-27.2 1-54.5.4-81.7-.3-13.2-2.2-26.6-9.7-38.3-3.2-5-6.7-9.7-10.3-14.4-10.3-13.8-16.6-29.2-18-46.2-1.3-16.4-1.7-32.8-1.6-49.3.1-13.7 8.1-24 17.2-33.3 9.6-9.8 19.8-19 29.5-28.7 5.8-5.8 9.8-12.7 10.2-21.1 1.4-24.6 14.4-42.4 33.1-56.8 13.5-10.4 28.5-17.9 44.7-23.2 14.7-4.8 29.3-10.4 44.4-13.4 23-4.6 46.2-8 69.5-10.6 58.4-6.5 117.1-9.2 175.9-9h30.1c-.1-.3 72.2-1.4 108.4-.7zm159.6 323.9c-.5-.6-1-1.2-1.4-1.7 1-1.1 1.8-2.7 3-3.3 3.1-1.3 6.5-2.1 9.7-3.2 10.9-3.9 21.3-9.1 28-18.7 10.5-15 18.9-31.4 23.7-49.2 2-7.3 3.6-15.1 3-22.5-1.3-14.8-10-26.3-20.2-36.5-10.5-10.5-23.4-17.6-36.5-24.3-4.5-2.3-9.5-4.3-14.5-4.8-14-1.4-28.1-2-42.2-3-1.3-.1-2.5-.3-3.7-.4 0-.6 0-1.2 0-1.8 15.7-2.2 31.7-.7 48-1.2-2.8-4.5-5.4-8.4-7.5-12.5-9.9-19.9-20.8-39.2-33.8-57.2-10.7-14.8-21.9-29.3-35.6-41.5-11.5-10.3-24.1-18.5-39.9-20-20.6-1.9-41.1-4.8-61.7-5.1-34.4-.5-68.9.5-103.3 1.3-39.5 1-78.9 2-118.3 3.9-25 1.2-49.9 4.2-74.8 6.5-5.3.5-10.6 1.3-15.8 2v1.5c2.5.5 5 1.2 7.6 1.4 4.8.5 9.7.4 14.5 1.1 21 2.8 42 2.1 62.7-1.6 20.1-3.6 40.2-6.5 60.6-6.8 29.1-.5 58.3-.3 87.4-.7 14.7-.2 29.1 1.4 43.2 5.1 27.6 7.3 52.7 20.2 76.9 34.8 9.7 5.9 19.5 11.7 29.2 17.7 7.3 4.5 14.4 9.2 21.4 14.2 1.2.9 1.2 3.5 1.7 5.3-1.7.2-3.8 1.1-5.1.5-5.5-2.5-11.1-5.1-16.1-8.4-9.8-6.5-19-13.7-28.8-20.1-17.7-11.6-36.3-21.6-56.2-28.8-13.6-4.9-27.7-9.3-41.9-11.5-17.9-2.7-36.2-3.3-54.3-4-34.4-1.4-68.6 1.2-102.6 5.4-27.5 3.4-54.9 8-82.8 4.1-11.4-1.6-22.8-3.5-34.3-5-3.2-.4-6.6-.6-9.8 0-27 5.4-53.5 12.6-78.5 24.7-11.2 5.4-22 11.4-30.8 20.2-11.1 11.1-16.4 25-17.7 40.4-.7 8.1-3 15.4-8.6 21.2-9 9.3-18.1 18.6-27.7 27.3-15.2 13.8-23.7 30-21.1 51.1.5 4 .5 8.1.9 12.2 1.9 18.7 7 36.1 18.6 51.3 4.6 6 9.1 12.3 12.7 19 6.8 12.8 6.9 27.2 7.8 41.2 2.4 40.6-1 81.1-1.9 121.7-.5 20.5-1.3 41-.5 61.5.6 14.5 7 27.3 18.7 36.5 10 7.9 21.8 12.5 34.2 15.9 20.4 5.6 41.3 6.9 62.2 8.5 31.1 2.3 61.7-1.4 92-7 31.4-5.8 62.6-12.2 93.7-19.4 19-4.4 37.7-10.2 56.1-16.5 14.9-5.1 29.3-11.8 43.8-17.8 21.2-8.8 42.7-17 63.4-26.9 23.2-11.1 45.9-23.3 68.3-36 31.1-17.6 59.8-38.6 85.3-63.7 14.3-14.1 27.9-29.2 35.6-47.9 5-12.1 13.8-19 24.2-25.3 4.3-2.5 8.1-5.8 12.1-8.8-.2-.2-.3-.5-.5-.7-7.3 1.9-14.6 4.1-21.8 6.3z"/><path d="m280 326.5c26.2-.6 52.2-2.8 78-7 30.4-5 60.5-11.3 90.4-18.8 34.9-8.7 69.2-19.3 103.1-31.6 18.1-6.5 35.9-13.8 53.6-21.1 13.1-5.4 26-11.5 38.9-17.3 2.8-1.2 4.2-2.9 3.4-6.2-.3-1.2-.2-2.5-.2-3.7 0-9.4 6.3-13.6 14.8-9.6 1.8.9 3.5 3.2 4 5.2 1.2 4.7 1.4 9.6 2.5 14.3 3 12.7 11.9 18.9 24 21.3 3.8.8 7.7 1.1 11.6 1.7.5.1.9.1 1.4.2 4.7 1 8.2 4.8 7.6 8.2-.6 3.6-5.8 7.1-10.1 6.4-7.3-1.1-14.5-2.3-21.7-3.9-3.1-.7-4.2.4-5.2 2.9-7.9 21-18.9 40.4-31.9 58.7-17.9 25.1-39.2 46.9-63.4 65.9-23.6 18.6-49 34-76.3 46.2-17.5 7.8-35.7 14.1-53.8 20.4-38.1 13.3-77.9 14.7-117.7 15.3-39.2.6-78.3-.5-117.3-5-19.6-2.3-39.2-4.3-58.6-8-17.3-3.3-32.7-11.2-44.4-25.2-9.8-11.7-14.1-25.7-16.6-40.3-3.4-19.9-4.9-40.1-4.3-60.3.8-23.7 5.7-46.5 12.6-69.1 3.1-10 6.7-19.8 10.1-29.7.4-1.2.8-2.4 1.3-3.5 1.5-2.9 3.5-5.2 7-3.7 2.9 1.3 4.2 3.8 3.6 7.3-.6 3.4-.7 6.8-1.2 10.3-2.3 16.4 4.1 29.1 16.4 39.6 15.5 13.2 33.2 22 52.4 28.2 28.2 9.3 57 11.6 86 11.9zm177.8 52.3c-5.9 2.9-11.1 6-16.8 8.2-19.9 7.9-40.7 12.1-61.8 15.1-3.1.4-3.9 1.7-3.9 4.5-.2 15-.4 30.1-.7 45.1-.1 2.6.9 4 3.3 4.1 4.4.3 8.8.8 13.1.3 27.4-2.9 53.6-10.6 79.6-19.3 2.8-.9 3.2-2.4 2.5-4.9-1.7-5.7-3.3-11.4-5-17.1-3.5-11.9-6.9-23.9-10.3-36zm94.7-30.4c-.9.2-1.6.2-2.1.5-24.1 9.4-48.2 18.9-72.4 28.3-2.6 1-3 2.7-2.6 5.2 1.7 14 7.6 26.3 15.6 37.7 6.5 9.2 7.3 9.4 16.8 3.2 14.4-9.3 28.8-18.7 43.1-28.1 6.5-4.3 12.8-8.8 19.4-13.3-15.8-9.3-16.5-10.6-17.8-33.5zm7.6-60.9c-1.4.1-2.5.1-3.5.4-9.9 2.8-19.8 5.6-29.8 8.4-21 6-42 12-63.1 17.9-2.9.8-3.7 2-2.7 5 2.4 6.9 4.6 14 6.4 21.1 3.1 11.9 2 9.8 12.2 6.7 18.2-5.6 36.1-12.1 54-18.4 20.4-7.2 26.8-24.3 26.5-41.1zm-199 170.8c-.8-17.6-1.6-34.8-2.5-52.5-22.5 8.4-45.2 9.3-68.4 10.5 2.3 14.2 4.4 27.9 6.6 41.6.5 3.1 2.8 2.7 5 2.6 17.8-.6 35.6-1.2 53.4-1.8 1.9 0 3.6-.2 5.9-.4zm-.6-122.7c-.3 8.4-.7 16.2-.9 24-.2 8-.1 8.3 7.7 7.6 15.4-1.4 30.8-2.8 46.2-4.9 11.1-1.6 22-4.4 33.6-6.7-3.3-10.9-6.2-20.9-9.3-30.9-.2-.7-2.4-1.4-3.6-1.2-13.3 2.6-26.5 5.8-39.9 8.1-11 1.9-22.1 2.7-33.8 4zm296.5-77.4c-1.3-3.2-2.1-5.9-3.3-8.4-1.6-3.6-4.1-4.6-7.9-2.6-4.9 2.7-10 5-15 7.6-16.3 8.2-32.7 16.3-49 24.7-1.5.8-2.8 3.2-2.9 4.9-.2 7.5 0 15 .3 22.5.2 6.6 1.4 7.5 7.3 4.8 16.7-7.4 33.4-14.8 49.8-22.8 3.7-1.8 6.6-5.4 9.5-8.5 1.9-2.2 3.3-4.9 4.6-7.6 2.3-4.7 4.4-9.7 6.6-14.6zm-389.2 84.1c-7.2 0-14 .7-20.5-.2-12.1-1.6-24-4.1-36-6.2-2.3-.4-4.9-1.8-5.6 2.4-1.1 7.4-2.4 14.8-4 22.1-.8 3.6.3 5.2 3.6 5.3 19.2 1.1 38.3 2.1 57.5 3 1.1 0 3.2-1.9 3.3-3.2.8-6 1.1-12.1 1.6-18.2.2-1.6.1-3.3.1-5zm14 117.8c-3.5-13.9-6.6-26.8-10-39.6-.3-1.2-2.9-2.6-4.5-2.6-12.2-.1-24.4.2-36.6.4-1 0-1.9.4-4.2 1 5.7 12 10.8 23.5 16.7 34.6 1.4 2.7 4.9 5.7 7.7 5.9 9.8.7 19.8.3 30.9.3zm58.4-122.8c-17.9 1.7-34.2 2.9-50.4 4.9-2.4.3-5.8 3.6-6.3 5.9-1.2 5.8-1.2 12-1.2 18 0 1 2.3 3 3.5 3 17.1-.2 34.1-.5 51.2-1.1 1.1 0 3.1-2.1 3.1-3.3.3-8.5.1-17.1.1-27.4zm285.7-20.8c-.3-.4-.6-.7-.9-1.1-14.8 6.1-29.6 12.2-44.4 18.3-.8.3-1.7 1.1-2 1.9-3.3 8-6 16.4-4 25 .6 2.7 4 5.4 6.7 6.7 1.6.7 5.4-.7 6.7-2.3 12.9-15.9 25.3-32.2 37.9-48.5zm-461.4 5.5c-4.2 9.4-5.9 19.7-6.5 30.2-.4 6.3 1.7 8.9 8 9.9 5.1.8 10.2 1.3 15.4 1.5 1.3 0 3.5-1.7 3.7-2.8 1.6-8.7 3-17.5 4.1-26.4.2-1.2-1-3.4-2.1-3.8-7.3-3.1-14.7-5.7-22.6-8.6zm56.7 135.1c-.6-2-1-3.2-1.4-4.3-2.5-7-5.8-13.9-7.5-21.1-2.3-9.4-6.7-14.8-17.1-14.2-4.2.2-8.4-.7-13.5-1.2 4 11.8 7.7 22.7 11.5 33.6.3.9 1.3 2 2.1 2.2 8.4 1.8 16.8 3.3 25.9 5zm-81.2-103.3c2.4-14.5 4.5-27.5 6.6-40.6.4-2.5-4.4-8.4-7.8-8.5-2-.1-5 2-6 3.9-5.7 10.5-8.1 21.9-7.8 33.8 0 1.8 1.2 4.1 2.6 5.1 3.4 2.2 7.3 3.8 12.4 6.3zm7.7 52.8c.1 2.1 0 3.3.3 4.5 1.9 9.3 3.9 18.6 6 27.9 2 9.1 11.1 13.3 20.2 9.1-3.3-11.1-6.6-22.3-9.9-33.5-.2-.6-.2-1.3-.5-1.8-.4-.7-.8-1.5-1.4-1.7-4.7-1.6-9.4-3-14.7-4.5zm-33.7-11.2c.5 1.9.8 3.4 1.3 4.8 3 9.1 6.4 18 8.9 27.2 1.2 4.5 3.7 6 7.7 6.7s5-.2 3.7-4c-2.7-8.3-5.9-16.5-8.1-24.9-1.8-7.2-7.1-8.5-13.5-9.8zm10.5-105.3c-3.2-.5-5.4-1.4-7.1-.9-2.4.8-4.6 9.3-3.6 12.9 3.3-3.7 6.4-7.2 10.7-12z"/><path d="m216.6 272c-4.6 3.3-10.2 6.9-17.4 6.9-2.2 0-5.1 1.6-6.4 3.4-4.8 6.5-12.1 7.3-19 8.9-.9.2-2.9-.7-3.2-1.6-.3-.8.5-2.6 1.3-3.3 1.3-1 3.1-1.4 4.6-2.2 3.1-1.7 6.1-3.6 9.2-5.2 3.4-1.8 6.8-4.1 10.5-4.8 5.5-1 10.5-2.5 15.2-5.6 1.6-1.1 4-1.1 6.8-1.8 2.4-9.6 11.6-14.2 20.3-19.1 11.1-6.2 22.6-11.8 33.9-17.9 4.2-2.3 5.8-6.4 6.2-11 .1-.6.1-1.2.1-1.9.7-19.4-1.2-21.9-19.3-29-9.8-3.8-19.8-5.6-30.2-6-18.6-.7-37.3-.8-55.8-2.4-12.9-1.1-17.3-11.5-10.7-21 3.5-5 8.7-8.8 13.3-13 1-.9 2.9-1 4.4-1 25 1.3 50 2.5 74.7 7 13.8 2.5 25.7 8 33.6 20 2.4 3.7 5.1 3.8 8.8 2.7 4.7-1.5 9.5-3.2 14.4-3.8 5.7-.7 10.6 2.8 11.4 6.9.8 4.6-2.4 9.1-8.3 11-6.4 2.1-12.8 3.9-19.3 5.6-3.5.9-3.8 2.3-3.5 5.9.9 9.3 1.5 18.7.8 27.9-1 12.9-10.7 18.9-21.6 23.4-4.9 2-9.8 4.2-14.5 6.5-4.4 2.2-5 4.6-1.9 8.1 8.3 9.1 16.4 18.5 25.5 26.7 3.9 3.5 9.9 5 15.2 6.5 4.1 1.2 7-1.8 9.3-5 3.7-5.3 9.3-6.1 14.1-2.2 3.8 3.1 4 9-.1 13.4-5.8 6.2-13.5 8-21.5 9.1-13.2 1.8-22.9-5.5-31.8-13.3-7.4-6.4-13.6-14.1-20.2-21.4-3.7-4.1-3.5-4.2-7.1 0-4.9 5.7-5.6 6.1-11.7 1.9-3.5-2.5-6.4-5.8-10.1-9.3zm-31.4-108.3c1.1.4 1.8 1 2.5 1 10.4.3 20.9.6 31.3.6 1.3 0 2.7-1.5 4.1-2.3-5.5-7-33.2-6.4-37.9.7z"/><path d="m559.2 180.9c-12.1-1.4-25.5-2.4-38.8-4.7-21.3-3.6-41.8-.6-61.9 6.2-13.7 4.6-27 10.7-40.7 15.4-15.5 5.4-29.4-.5-37.4-14.1-3.8-6.5-1.7-15.8 4.3-20.9 21.5-18.6 45.4-32.5 73.4-38.7 28.9-6.4 56.5-2.7 82.7 11.3 11.6 6.2 22.9 12.9 31.6 23 3.5 4 6.6 8.3 6.9 14 .2 4.2-1.5 6.6-5.6 7.2-4.4.4-8.8.8-14.5 1.3zm-145.5 1.8c.7-.1 2-.3 3.2-.5 18.3-3.1 35.2-10.6 52.2-17.4 1-.4 2-2.9 1.7-4.2-.8-3.8-2.4-7.4-3.5-11.1-2.7-8.6-2.6-8.3-11.3-6.7-20.2 3.6-37.2 13-51.7 27.2-1.1 1.1-2.3 3.3-2 4.6.8 4.3 6.4 8.2 11.4 8.1zm123.8-31.4c0 5.2-.1 8.4.1 11.7 0 .8.9 2.3 1.5 2.4 5.4.7 10.8 1.4 16.2 1.6 1.6 0 4.5-1.8 4.5-2.8.1-1.7-1.2-4.5-2.7-5.2-6-2.9-12.3-4.9-19.6-7.7z"/><path d="m741.4 249.3c-.5 13.4-4 25.8-9.2 37.8-.7 1.5-1.9 2.9-3.1 4-4 3.5-10.1 4.5-13 1.9-3.7-3.4-1.8-7.5-.6-11.3 2.4-7.7 5.9-15.2 7.4-23.1 6.4-33.7-19.3-60.7-54.5-58.7-16.4.9-31.9 5.6-46.9 12.4-22.4 10.2-45.6 17.4-70.7 15.1-22.6-2.2-41-13-56.7-29-1.2-1.2-1.8-2.9-2.6-4.4-3-5.6-1.2-8.6 5.1-8.6 5.7.1 10.4 2.7 13.5 7.3 9.5 13.9 23.7 19.1 39.3 20.7 17.3 1.9 34.1-1.9 50.1-8.1 14.5-5.6 28.3-13 42.6-19.3 3.4-1.5 7.2-2.3 10.9-2.6 19-1.6 37.6.8 54.9 9.1 16 7.7 25.4 21.3 30.2 38.1 1.8 6 2.3 12.4 3.3 18.7z"/><path d="m631.7 436.7c-8.2 4.4-16.2 9.4-24.6 13.2-27.6 12.5-55.1 25.3-83.2 36.5-20.2 8.1-41.3 14.3-62.2 20.6-17.2 5.2-34.5 10.1-52 14-24.1 5.4-48.3 10.5-72.7 14.4-36.7 5.8-73.7 8.6-110.9 8.2-17.5-.2-35.1.3-52.6-.4-28.9-1.2-54-12.3-75.1-32-6.1-5.7-9.9-19.5-7.1-27.5.9 2.3 2.4 4.6 2.5 6.9.6 10.2 6.5 16.6 13.9 22.7 17.6 14.5 37.5 22.3 60.3 23.9 41.6 2.9 83 1.1 124.3-3 28.6-2.8 57.1-7.2 85.5-12.2 21.4-3.7 42.5-9 63.4-14.6 20-5.4 39.8-11.8 59.4-18.8 22.8-8.1 45.4-16.7 67.7-26.1 14.7-6.1 28.6-13.9 42.9-21 4.7-2.4 9.4-5 14.3-7 1.7-.7 4-.1 6-.1 0 .7.1 1.5.2 2.3z"/><path d="m611.4 127.8c-4-2.9-7.6-5.1-10.7-7.8-15.6-13.7-32.4-25.6-50.9-35-21.8-11-44.8-18.2-69-21.7-26.5-3.9-53.1-2.4-79.7-1.8-14.9.4-29.5 2.6-44.2 5.1-14.1 2.4-28.7 2.3-43.1 2.5-21.8.3-43.6.4-65.3-.6-12.3-.6-24.4-3.6-36.6-5.8-10.4-1.8-20.7-2.8-31.3-1.1-5.4.9-9.2 3.5-11.7 8.3-1.4 2.5-3.1 5-6.2 2.9-2.8-1.9-2.7-5-.8-7.5 4.8-6.6 11.5-10.7 19.6-10.3 12.8.6 25.6 1.6 38.2 3.8 30.9 5.5 62 6.7 93.1 4.7 27.3-1.7 54.5-5.2 81.8-7.1 33-2.3 66.1-3.7 98.7 3.5 20.7 4.6 40.7 11.4 59.1 22 18.1 10.4 35.5 22.1 53 33.5 6 3.7 6.8 6 6 12.4z"/><path d="m115 200.4c7 .8 17.3.7 26.7 3.5 7.7 2.2 14.5 7.7 21.4 12.2 3.1 2 5.4 5.1 8 7.8 3.6 3.9 5 4.1 9 .6 2.8-2.4 5.4-5.2 8.1-7.8 1.1-1.1 2.2-2.3 3.5-3.1 2.4-1.4 4.5-4.4 7.7-1.1 3.4 3.4 5 7.8 2.3 10.8-5.2 5.7-10.5 11.6-16.8 16-7.4 5.3-15.7 4.2-23.3-.9-8.8-5.9-17.1-12.8-26.5-17.6-14.6-7.6-29.3-5.6-43.1 3.2-1.1.7-2.1 1.4-3.1 2.2-5 3.7-6.3 3.7-10.9-.5-2.3-2.2-5.5-4.4-4.1-8.2 1.5-4.1 4.2-7.2 9-7.9 1.3-.2 3-.5 3.8-1.4 7-7.8 16.2-7.5 28.3-7.8z"/><path d="m132.9 479c3.8 3.3 7.7 6.5 11.4 9.9 13.2 12 29 18.8 46 22.8 27.3 6.4 54.9 6.2 82.6 3.1 20.7-2.3 41.5-3.5 62.2-5.4 36-3.3 72-7.5 106.6-18.1 25.8-7.9 51.2-17.3 76.5-26.8 15.9-6 31.3-13.4 46.6-20.6 5-2.4 9.2-6.4 13.9-9.5 1.4-.9 3.1-2.1 4.6-2 1.8.2 4.2 1.2 5.1 2.6 1.6 2.4-.4 3.7-2.6 4.8-11.9 5.8-23.6 12.2-35.8 17.5-18.3 8-36.8 15.7-55.6 22.5-17.5 6.3-35.2 12-53.3 16.4-19.7 4.8-39.7 8.9-59.8 11.5-30.1 3.9-60.3 6.4-90.6 9.2-13.4 1.3-26.8 2.1-40.3 2.9-28 1.6-55.7-.2-82.4-9.6-11.4-4-22-9.7-30.6-18.4-3.2-3.2-6.5-6.7-6-11.8.6-.3 1.1-.6 1.5-1z"/><path d="m407.5 83.3c-5.6.3-11.1.7-16.6 1-1.9-6.4-1.1-7.8 6.1-7.9 21-.4 42-.7 62.9-.6 11.4.1 22.9.5 34.2 2.1 17.7 2.5 34 9.7 49.2 18.8 13.2 7.9 25.8 16.9 38.5 25.6 3.3 2.3 6.4 5.2 4.5 11.1-2.5-1.5-4.7-2.7-6.8-4.1-13-9.2-25.5-19.1-38.9-27.6-16.3-10.3-34.4-15.9-53.6-18.5-23.8-3.3-47.5-2.6-71.2-.8-.6 0-1.2.2-1 1.2-2 2.4-3.6 5.3-5.9 7.2-8.5 6.8-11.4 16.1-12.7 26.2-.3 2.6-.1 5.3-.6 8-.2 1.2-1.4 2.3-2.1 3.5-.9-1.2-2.4-2.3-2.5-3.5-1.4-15.4 2.5-28.8 14.9-38.9.7-.6 1.3-1.1 2-1.7-.1-.4-.2-.7-.4-1.1z"/><path d="m400.7 255.7c-2.8 0-5.6.2-8.4-.1-3-.3-5.9-2.1-5.5-5.3.3-2.4 2.1-5.3 4.2-6.6 8.7-5.4 32.7-3.2 40.3 3.6 2.2 2 3.7 4.9 4.9 7.7 3.7 8.9 5.8 18.1 2.9 27.8-1.7 5.9-12.7 15.2-18.7 16.4-4.5.9-7.8-3.8-9.9-10.1-1.5-4.2.6-7 5.5-8.6 6.6-2.2 8.2-4.2 8.3-10.7.2-6.7-1.8-10.3-7.9-12.2-5-1.5-10.3-2-15.5-2.9-.1.4-.1.7-.2 1z"/><path d="m116.7 165.5c8.3 0 16.6-.1 24.9.1 1.3 0 2.6 1.3 3.9 2.1-1.3.9-2.6 2.5-3.9 2.5-12.4.1-24.8.6-37.1-.2-20.7-1.5-36.8 7.3-51.3 20.7-7.8 7.2-14.6 15.2-17.4 25.6-6.1 22.5-.5 43.6 18.9 56.7 7.1 4.8 14.9 8.4 22.4 12.6 1.9 1.1 4.1 1.9 5.5 3.4 1.1 1.2 1.2 3.2 1.7 4.9-1.7.1-3.7.8-5 .2-8.9-4.5-17.9-8.9-26.4-14.2-5.2-3.3-10-7.6-14.2-12.1-6.9-7.3-8.6-16.8-9.6-26.4-.4-4 .1-8.2-.4-12.2-1.9-16.6 6.7-28.6 17-40 16.5-18.2 38-23.5 61.4-23.6h9.4c.2.1.2 0 .2-.1z"/><path d="m406.2 278.3c-.3 4.9-2.4 8.4-6.5 10.5-4 2.1-7.4.5-10.3-2.1-3.1-2.9-6.3-3.6-10.5-3-9.1 1.3-18.3 2.2-27.5 2.6-3.3.1-6.9-1.5-9.9-3.1-1.5-.8-2.8-3.2-3-5-.1-.9 2.3-2.8 3.9-3.1 9.3-2.2 18.5-4.4 27.9-6.1 6.9-1.2 13.9-2.2 20.9-2.4 7.7-.2 13.2 3.7 14.6 9.3.2.9.3 1.8.4 2.4z"/><path d="m221 82.1c20.9 2.5 41.9 5 62.8 7.7 2.9.4 5.8 1.5 8.5 2.7 1.3.6 2.1 2.2 3.2 3.4-1.4.6-3 2-4.3 1.8-6-.9-11.9-2.4-17.9-3.5-18.3-3.3-36.6-6.8-55.3-6.8-14.9 0-28.9 4.6-41.4 11.9-11.1 6.5-16.5 18-18.5 30.7-.5 3-1.4 5-4.5 4.5-3.3-.5-4.2-2.8-3.6-5.9 3.1-16.7 12.2-28.5 27.7-35.8 13.8-6.5 27.8-11.4 43.4-9.1-.2-.5-.1-1-.1-1.6z"/><path d="m219.6 495.1c.8-4.8 3.7-4.7 6.5-4.7 29.7.1 59.4.1 89.2.3 14.9.1 29.7.5 44.6 1 1.9.1 3.8 1.8 5.7 2.8-2 .8-4 2.2-6 2.2-44.4-.3-88.8-.7-133.3-1.1-2.1-.1-4.2-.3-6.7-.5z"/><path d="m766.1 267.4c.1 14.7-4.6 26.6-15.8 35.7-7.2 5.9-16 8.3-24.7 10.7-2.1.6-4.2 1.9-6.2 1.8s-3.9-1.6-5.8-2.5c.9-1.3 1.6-3.2 2.9-3.8 5.1-2.3 10.3-4.5 15.7-6.2 14.7-4.8 22.5-15.6 26.4-29.7 1-3.8 2.8-5.6 7.5-6z"/><path d="m655.4 169c4.6-.7 9.1-1.7 13.7-2.1 18.8-1.7 37.5-1.4 56 3.5 11.9 3.1 21.3 10.1 29.4 19.1 3.3 3.7 6.7 7.4 9.8 11.2 1.2 1.4 1.7 3.4 2.7 5.5-5.2 1.1-6.9-2.2-9.1-4.6-5.5-6.2-10.5-12.8-16.4-18.5-6.4-6.3-14.7-9.7-23.7-10.1-19.8-1.1-39.7-1.7-59.6-2.5-.9 0-1.8-.1-2.7-.2 0-.4-.1-.8-.1-1.3z"/><path d="m281.5 137.9c0-2.8-.2-5.6 0-8.4.6-6.6-2.1-11.7-6.8-16.2-1.3-1.2-2.7-4.6-2.3-5 2.1-2.1 4.9-2.4 7.6-.3 5 4 8.7 9 9.1 15.3.5 8.6.1 17.2-.2 25.8-.1 1.5-1.3 3.2-2.5 4.2-1 .9-3.1 1.6-4.1 1.2s-1.8-2.5-1.8-3.8c0-4.2.4-8.4.7-12.6.1-.2.2-.2.3-.2z"/><path d="m88.9 192.2c-5.9 2.3-12 4.4-17.8 6.9-3 1.3-5.8 3.1-8.3 5.1-3.4 2.8-5.3 6.4-4.7 11.1.4 4 .4 8.1.4 12.2 0 1.8-.4 3.5-.7 5.3-.5.1-.9.2-1.4.3-.6-1.4-1.6-2.6-1.8-4.1-.5-2.9-.7-5.9-1-8.9-1.3-13.3 1.2-17.3 14.8-24.5 4.7-2.5 9.8-4 14.9-5.6 1.8-.5 4 .3 6 .5-.2.7-.3 1.2-.4 1.7z"/><path d="m76.7 268.8c-7.3 0-18.3-8.2-20-14.4-.3-.9-.1-2.5.5-2.9s2.1-.2 2.9.3c6 3.9 12 7.8 17.9 11.9.8.6 1.8 2.5 1.4 3-.8 1.1-2.2 1.7-2.7 2.1z"/></g></svg>