<svg enable-background="new 0 0 108 97" viewBox="0 0 108 97" xmlns="http://www.w3.org/2000/svg"><g style="fill:none;stroke:#474747;stroke-width:4;stroke-linecap:round;stroke-linejoin:round;stroke-miterlimit:10"><path d="m63.5 18.2c1.7 1.9 3.2 3 5.5.5 2.5-2.6 4.9-.6 6.9 1 2.6 2.1.2 3.8-1 5.4-1.1 1.5-2.1 3.2-3.5 4.5-2.3 2-4.5 3.7-8 1.7-4-2.3-7.7-4.8-11-8.1-3-3-2.7-6.2-.4-9 3.4-4.1 7.5-7.6 11.9-10.6 3-2 5.7-1.8 8.5 0 9.8 6.4 15.4 15.8 19.5 26.5 3.2 8.4 6.8 16.7 9.1 25.5.8 3.2 2.1 6.2 1.9 9.5-.1 1.5.3 2.8 1 4 3 5.4 1.6 10.5-4 12.4-11.4 3.9-22.5 8.9-34.5 11.1-7.9 1.5-22.7-1.1-31-5.5-1.6.2-2.3 1.6-3.5 2.5-10.5 7.6-13.1 6.5-22.9-2.6-6.5-6-7.3-22.1-2.5-29.8 1.2-1.9 2.9-2.4 5-2.5 8.7-.6 12.4.6 20.1 7 9.6-8.3 21.6-7.5 33.4-6.9 6.6.3 11.2 5.2 15.5 9.9"/><path d="m71.5 30.7c.4 1.5 1.6 2.4 1.2 4.5-1.3 6.8-1.9 13.7-2.7 20.5m-12.5 6c-3-.3-6-.7-9-1-2.2-.2-4.1 1-6 2"/></g></svg>