<svg enable-background="new 0 0 79.4 59.8" viewBox="0 0 79.4 59.8" xmlns="http://www.w3.org/2000/svg"><path d="m8.4 38.5c16.3-17 33.5-30 60-.3-13.3 22.9-38.6 26.3-60 .3z" fill="none" stroke="#474747" stroke-width="3"/><path d="m39 27.7c-1.4 0-2.7.3-4 .8.7.6 1.1 1.4 1.1 2.4 0 1.8-1.4 3.2-3.2 3.2-1.2 0-2.3-.7-2.8-1.7-1.2 1.7-1.9 3.8-1.9 6 0 5.9 4.8 10.7 10.7 10.7s10.7-4.8 10.7-10.7-4.7-10.7-10.6-10.7z" fill="#454545"/><g fill="none" stroke="#474747" stroke-linecap="round" stroke-width="3"><path d="m9.3 26.7-6.9-6.7"/><path d="m20.9 18.4-4.6-8.5"/><path d="m38.3 14.1v-10.7"/><path d="m57.8 19.1 6.4-6.8"/><path d="m70.8 28.2 4.9-3.1"/></g></svg>