<svg xmlns="http://www.w3.org/2000/svg" xmlns:xlink="http://www.w3.org/1999/xlink" viewBox="0 0 678 837"><style>.st0{display:none;} .st1{display:inline;} .st2{fill:#FFFFFF;} .st3{fill:none;stroke:#53D9A9;stroke-width:4;stroke-linecap:round;stroke-miterlimit:10;} .st4{fill:none;stroke:#53D9A9;stroke-width:3;stroke-linecap:round;stroke-miterlimit:10;}</style><g id="Calque_1" class="st0"><image width="1920" height="1080" xlink:href="21988345.jpg" transform="translate(215.75 102.5)" overflow="visible"/><path class="st1 st2" d="M424 315.65c1.25 74.08 2.51 148.16 3.76 222.24.35 20.93.71 41.86 1.06 62.78.05 3.21 5.05 3.22 5 0-1.25-74.08-2.51-148.16-3.76-222.24-.35-20.93-.71-41.86-1.06-62.78-.06-3.22-5.06-3.23-5 0z"/><path class="st1 st2" d="M259.18 318.06c59.22 9.27 119.12 12.08 178.9 7.36 10.4-.82 20.51-8.61 20-20-.53-11.74-8.81-18.87-20-20-32.06-3.23-63.92-2.04-95.8 2.34-9.81 1.35-15.5 13.24-14.33 21.94 1.4 10.43 9.59 16.35 19.64 17.34 76.1 7.5 151.75-6.82 227.57-11.07 21.68-1.22 43.41-1.56 65.1-.41-4.71-11.38-9.43-22.76-14.14-34.14C583.94 331.2 551.6 388.16 530.75 450c9.79-3.98 19.59-7.97 29.38-11.95-2.98-1.97 1.67 2.07.34.21-.56-.79-1.56-2.7-.63-.53 1.46 3.4-.43-1.57-.61-1.39-.17.18 1.48 4.53.28.37-.21-.72-.58-3.63-.33-.65.28 3.35.12-.66.08-1.38-.19-3.02.43.74-.25 1.31.29-.25 1.04-3.42 1.21-3.86 2.84-7.36-1.43-16.59-7.17-21.02-6.92-5.34-14.53-4.81-22.21-1.56 3.27-1.38-2.16.86-3.07 1.23-2.04.82-4.09 1.63-6.14 2.42-4.7 1.8-9.42 3.53-14.18 5.16-8.62 2.97-17.34 5.66-26.13 8.07-17.92 4.92-36.09 8.4-54.44 11.28-18.91 2.97-37.19 6.81-55.32 13.06-17.76 6.11-35.39 12.02-53.86 15.65-4.94.97-9.9 1.75-14.88 2.52-3.23.5 2.96-.3-.29.03-1.56.16-3.12.37-4.69.54-2.5.27-5.01.5-7.51.71-10.66.86-21.35 1.1-32.05.82 1.77 13.1 3.54 26.19 5.32 39.29 40.07-6.43 78.75-19.31 117.45-31.15 39.84-12.19 79.69-24.38 119.53-36.56 9.99-3.06 17.36-14.12 13.97-24.6-3.26-10.07-13.89-17.25-24.6-13.97-39.84 12.19-79.69 24.38-119.53 36.56-38.7 11.84-77.39 24.71-117.45 31.15-9.79 1.57-15.52 13.06-14.33 21.94 1.33 9.92 9.6 17.08 19.64 17.34 39.9 1.06 79.04-6.05 116.63-19.16 18.17-6.34 36.15-11.33 55.16-14.41 18.96-3.07 37.8-6.16 56.41-11 22.12-5.75 43.51-13.48 64.55-22.37-9.79-7.53-19.59-15.06-29.38-22.59-7.33 18.98 2.03 40.35 18.3 51.1 11.36 7.51 25.48-.4 29.38-11.95 2.41-7.15 4.97-14.25 7.7-21.28 1.47-3.79 2.99-7.55 4.56-11.3-1.36 3.26.2-.44.72-1.63.69-1.6 1.4-3.19 2.11-4.78 6.17-13.77 12.98-27.26 20.4-40.4 7.42-13.14 15.45-25.93 24.07-38.33 4.31-6.2 8.76-12.29 13.35-18.28-2.12 2.76.41-.51 1.15-1.45 1.08-1.37 2.17-2.73 3.26-4.08 2.55-3.16 5.15-6.28 7.78-9.38 5.33-6.28 7.47-13.95 4.14-21.85-3.19-7.55-10.16-11.86-18.28-12.29-76.28-4.04-151.7 11.02-227.75 13.38-21.66.67-43.34.23-64.92-1.89 1.77 13.1 3.54 26.19 5.32 39.29-4.11.56 2.09-.25 2.34-.28 1.92-.23 3.84-.44 5.76-.64 3.52-.36 7.05-.68 10.57-.94 7.38-.55 14.77-.88 22.17-1 14.8-.23 29.6.46 44.33 1.94v-40c-28.61 2.26-57.33 2.91-86.01 1.85-14.34-.53-28.66-1.48-42.94-2.84-6.82-.65-13.62-1.4-20.42-2.24-1.62-.2-3.23-.41-4.85-.62 3.93.51-1.65-.23-2.44-.34-3.87-.55-7.74-1.13-11.61-1.74-10.29-1.61-22.02 2.62-24.6 13.97-2.21 9.52 2.88 22.82 13.94 24.55zM641.92 386.32c-1.32.43-2.65.86-3.97 1.29-2.6.62-4.87 1.81-6.8 3.58-2.18 1.41-3.89 3.28-5.15 5.61-1.46 2.3-2.25 4.77-2.37 7.44-.6 2.66-.48 5.32.36 7.98.67 1.59 1.34 3.19 2.02 4.78 1.78 3.01 4.17 5.4 7.17 7.18 1.59.67 3.19 1.34 4.78 2.02 3.54.95 7.09.95 10.63 0 1.32-.43 2.65-.86 3.97-1.29 2.6-.62 4.87-1.81 6.8-3.58 2.18-1.41 3.89-3.28 5.15-5.61 1.46-2.3 2.25-4.77 2.37-7.44.6-2.66.48-5.32-.36-7.98-.67-1.59-1.34-3.19-2.02-4.78-1.78-3.01-4.17-5.4-7.18-7.18-1.59-.67-3.19-1.34-4.78-2.02-3.53-.95-7.08-.95-10.62 0z"/><path class="st1 st2" d="M643.23 430.93c9.66-.95 19.32-1.28 29.02-.99 10.47.32 20.47-9.43 20-20-.5-11.11-8.79-19.66-20-20-9.7-.29-19.36.03-29.02.99-10.38 1.03-20.52 8.46-20 20 .45 9.95 8.85 21.1 20 20z"/><path class="st1 st2" d="M708.72 427.93l5.28-2.64c2.33-1.26 4.2-2.97 5.61-5.15 1.77-1.93 2.96-4.2 3.58-6.8.83-2.66.95-5.32.36-7.98-.12-2.66-.91-5.14-2.37-7.44-2.75-4.27-6.85-8.03-11.95-9.19-1.77-.24-3.54-.48-5.32-.71-3.61.01-6.97.92-10.09 2.73l-5.28 2.64c-2.33 1.26-4.2 2.97-5.61 5.15-1.77 1.93-2.96 4.2-3.58 6.8-.83 2.66-.95 5.32-.36 7.98.12 2.66.91 5.14 2.37 7.44 2.75 4.27 6.85 8.03 11.95 9.19 1.77.24 3.54.48 5.32.71 3.6-.01 6.97-.92 10.09-2.73z"/><path class="st1 st2" d="M737.83 419.52l1.32-1.32c1.95-1.81 3.33-3.96 4.14-6.44 1.25-2.38 1.83-4.95 1.72-7.71.1-2.75-.47-5.32-1.72-7.71-.81-2.48-2.19-4.63-4.14-6.44-1.35-1.04-2.7-2.08-4.05-3.13-3.12-1.81-6.48-2.72-10.09-2.73-1.77.24-3.54.48-5.32.71-3.39.95-6.33 2.66-8.83 5.14l-1.32 1.32c-1.95 1.81-3.33 3.96-4.14 6.44-1.25 2.38-1.83 4.95-1.72 7.71-.1 2.75.47 5.32 1.72 7.71.81 2.48 2.18 4.63 4.14 6.44 1.35 1.04 2.7 2.08 4.05 3.13 3.12 1.81 6.48 2.72 10.09 2.73 1.77-.24 3.54-.48 5.32-.71 3.4-.94 6.34-2.66 8.83-5.14z"/><path class="st1 st2" d="M744.8 424.06h6.6c5.13 0 10.52-2.23 14.14-5.86 1.95-1.81 3.33-3.96 4.14-6.44 1.25-2.38 1.83-4.95 1.72-7.71-.23-5.17-1.93-10.54-5.86-14.14-3.91-3.59-8.72-5.86-14.14-5.86h-6.6c-5.13 0-10.52 2.23-14.14 5.86-1.95 1.81-3.33 3.96-4.14 6.44-1.25 2.38-1.83 4.95-1.72 7.71.23 5.17 1.93 10.54 5.86 14.14 3.91 3.6 8.72 5.86 14.14 5.86z"/><path class="st1 st2" d="M757.99 424.06c10.46 0 20.48-9.2 20-20-.49-10.84-8.79-20-20-20-10.46 0-20.48 9.2-20 20 .49 10.84 8.79 20 20 20zM568.37 558.8c-.72.6-1.44 1.19-2.18 1.77 2.21-1.69 2.44-1.88.7-.58-1.54 1.06-3.04 2.17-4.61 3.2-3.13 2.06-6.36 3.93-9.66 5.69-9.25 4.92-12.87 18.54-7.18 27.36 6.06 9.41 17.47 12.44 27.36 7.17 8.57-4.55 16.35-10.17 23.84-16.32 8.12-6.67 7.43-21.47 0-28.28-8.61-7.93-19.61-7.12-28.27-.01zM1686 554.46c-1.92 11.59-.41 22.71 6.24 32.66 5.87 8.77 14.24 15.32 23.42 20.37 16.59 9.12 34.69 16.02 52.84 21.28 35.66 10.33 72.86 14.32 109.65 18.38 10.44 1.15 20.45-10.02 20-20-.53-11.82-8.82-18.77-20-20-8.27-.91-16.53-1.83-24.79-2.83-3.55-.43-7.09-.88-10.64-1.34-2.36-.31-2.36-.31 0 0-.89-.12-1.77-.24-2.65-.37-2.06-.29-4.13-.59-6.19-.9-15.54-2.34-31.01-5.22-46.22-9.17-7.69-2-15.32-4.27-22.83-6.88-3.33-1.16-6.64-2.38-9.92-3.68-1.09-.43-2.19-.87-3.27-1.32 2.06.88 2.03.86-.1-.06-1.61-.73-3.23-1.44-4.83-2.19-3.67-1.71-7.31-3.51-10.86-5.46-1.44-.79-2.88-1.61-4.27-2.49-.57-.36-4.83-3.54-1.31-.65-1.47-1.21-2.72-2.7-4.17-3.91-1-1.12-.77-.78.69 1.03-.59-.84-1.13-1.71-1.62-2.61-.84-1.7-.93-1.83-.26-.4.6 1.45.6 1.29 0-.49-.48-2.25-.47-1.97.03.85.07-2.28-.04-2.01-.35.81 1.7-10.28-2.68-22.03-13.97-24.6-9.67-2.2-22.79 2.93-24.62 13.97zM1526.72 402.14c70.21 15.45 140.53 30.65 211.99 39.15 17.08 2.03 34.24 3.39 51.3 5.68-3.62-.49 2.09.32 3.14.48 1.87.29 3.75.58 5.62.9 4.36.74 8.71 1.56 13.03 2.5 8.25 1.79 16.39 4.05 24.47 6.48 16.13 4.86 32.06 10.43 48.43 14.45 17.18 4.21 34.68 6.74 52.2 9.05 9.11 1.2 18.23 2.27 27.35 3.39 2.43.3 4.86.6 7.29.91.91.12 1.82.23 2.73.35.39.05 4.17.54 1.89.24-2.5-.33 1.31.18 1.88.26l3.63.51c2.11.31 4.22.62 6.33.95 18.63 2.9 37.09 6.88 54.89 13.19 9.87 3.5 22.32-3.96 24.6-13.97 2.55-11.2-3.4-20.86-13.97-24.6-32.24-11.43-66.45-15.05-100.21-19.16-3.95-.48-7.9-.97-11.85-1.47-1-.13-6.95-.93-2.88-.37-2.12-.29-4.24-.59-6.36-.9-8.16-1.19-16.3-2.53-24.38-4.17-16.45-3.33-32.42-8.29-48.41-13.34-16.16-5.11-32.36-9.84-49.09-12.71-17.98-3.09-36.16-4.84-54.3-6.73-8.71-.91-17.41-1.89-26.09-3-2.27-.29-4.55-.58-6.82-.89 3.25.44-1.48-.21-2.47-.35-4.54-.64-9.07-1.3-13.61-1.98-17.48-2.65-34.91-5.65-52.29-8.9-39.3-7.34-78.35-15.94-117.39-24.53-10.19-2.24-22.12 3.06-24.6 13.97-2.32 10.12 3.02 22.21 13.95 24.61zM1682.9 318.65c99.66-.11 199.32-1.61 298.94-4.53 27.89-.82 55.78-1.75 83.67-2.78 10.44-.39 20.5-8.92 20-20-.47-10.5-8.8-20.42-20-20-99.59 3.7-199.24 6.01-298.89 6.9-27.9.25-55.81.38-83.71.42-10.46.01-20.48 9.19-20 20 .47 10.82 8.77 20 19.99 19.99z"/><path class="st1 st2" d="M2082.68 310.59c10.46 0 20.48-9.2 20-20-.49-10.84-8.79-20-20-20-10.46 0-20.48 9.2-20 20 .48 10.84 8.79 20 20 20z"/><path class="st1 st2" d="M2087.95 310.59c10.46 0 20.48-9.2 20-20-.49-10.84-8.79-20-20-20-10.46 0-20.48 9.2-20 20 .49 10.84 8.79 20 20 20z"/><path class="st1 st2" d="M2087.95 310.59c10.46 0 20.48-9.2 20-20-.49-10.84-8.79-20-20-20-10.46 0-20.48 9.2-20 20 .49 10.84 8.79 20 20 20z"/><path class="st1 st2" d="M2093.23 313.23c10.46 0 20.48-9.2 20-20-.49-10.84-8.79-20-20-20-10.46 0-20.48 9.2-20 20 .49 10.84 8.79 20 20 20z"/><path class="st1 st2" d="M2095.87 319.83c10.46 0 20.48-9.2 20-20-.49-10.84-8.79-20-20-20-10.46 0-20.48 9.2-20 20 .49 10.84 8.79 20 20 20z"/></g><g id="Calque_2"><path class="st3" d="M663.56 593.62L108.32 821.87"/><path class="st4" d="M495.21 519.15L9.57 643.8"/><path class="st3" d="M545.39 371.84L31 309.15"/><path class="st4" d="M658.71 265L330.51 45.27"/><path class="st3" d="M1704.45 290.71l539.06-252.54"/><path class="st4" d="M1744.92 387.83l505.07-108.45"/><path class="st3" d="M1825.86 507.63l555.25 84.17"/><path class="st4" d="M1712.55 583.71l689.61 200.73"/></g></svg>